<?xml version="1.0" encoding="UTF-8"?>
<svg id="_レイヤー_2" data-name="レイヤー 2" xmlns="http://www.w3.org/2000/svg" viewBox="0 0 20.64 20.64">
  <defs>
    <style>
      .cls-1 {
        fill: #231815;
        stroke-width: 0px;
      }
    </style>
  </defs>
  <g id="_レイヤー_1-2" data-name="レイヤー 1">
    <g>
      <path class="cls-1" d="m10.32,1.86c2.76,0,3.08.01,4.17.06,1.01.05,1.55.21,1.92.36.48.19.83.41,1.19.77.36.36.58.71.77,1.19.14.36.31.91.36,1.92.05,1.09.06,1.41.06,4.17s-.01,3.08-.06,4.17c-.05,1.01-.21,1.55-.36,1.92-.19.48-.41.83-.77,1.19s-.71.58-1.19.77c-.36.14-.91.31-1.92.36-1.09.05-1.41.06-4.17.06s-3.08-.01-4.17-.06c-1.01-.05-1.55-.21-1.92-.36-.48-.19-.83-.41-1.19-.77-.36-.36-.58-.71-.77-1.19-.14-.36-.31-.91-.36-1.92-.05-1.09-.06-1.41-.06-4.17s.01-3.08.06-4.17c.05-1.01.21-1.55.36-1.92.19-.48.41-.83.77-1.19s.71-.58,1.19-.77c.36-.14.91-.31,1.92-.36,1.09-.05,1.41-.06,4.17-.06m0-1.86c-2.8,0-3.15.01-4.26.06-1.1.05-1.85.22-2.51.48-.68.26-1.25.62-1.83,1.19-.57.57-.93,1.15-1.19,1.83-.26.66-.43,1.41-.48,2.51-.05,1.1-.06,1.45-.06,4.26s.01,3.15.06,4.26c.05,1.1.22,1.85.48,2.51.26.68.62,1.25,1.19,1.83.57.57,1.15.93,1.83,1.19.66.26,1.41.43,2.51.48,1.1.05,1.45.06,4.26.06s3.15-.01,4.26-.06c1.1-.05,1.85-.22,2.51-.48.68-.26,1.25-.62,1.83-1.19.57-.57.93-1.15,1.19-1.83.26-.66.43-1.41.48-2.51.05-1.1.06-1.45.06-4.26s-.01-3.15-.06-4.26c-.05-1.1-.22-1.85-.48-2.51-.26-.68-.62-1.25-1.19-1.83-.57-.57-1.15-.93-1.83-1.19-.66-.26-1.41-.43-2.51-.48-1.1-.05-1.45-.06-4.26-.06h0Z"/>
      <path class="cls-1" d="m10.32,5.02c-2.93,0-5.3,2.37-5.3,5.3s2.37,5.3,5.3,5.3,5.3-2.37,5.3-5.3-2.37-5.3-5.3-5.3Zm0,8.74c-1.9,0-3.44-1.54-3.44-3.44s1.54-3.44,3.44-3.44,3.44,1.54,3.44,3.44-1.54,3.44-3.44,3.44Z"/>
      <circle class="cls-1" cx="15.83" cy="4.81" r="1.24"/>
    </g>
  </g>
</svg>