<?xml version="1.0" encoding="UTF-8"?>
<svg id="_レイヤー_2" data-name="レイヤー 2" xmlns="http://www.w3.org/2000/svg" viewBox="0 0 25.53 24.81">
  <defs>
    <style>
      .cls-1 {
        fill: #fff;
        stroke-width: 0px;
      }
    </style>
  </defs>
  <g id="_レイヤー_1-2" data-name="レイヤー 1">
    <g>
      <g>
        <path class="cls-1" d="m5.21,0h1.88c.28,0,.51.23.51.51v4.13c0,.28-.23.51-.51.51h-1.88c-.28,0-.51-.23-.51-.51V.52c0-.28.23-.52.52-.52Z"/>
        <path class="cls-1" d="m18.45,0h1.88C20.61,0,20.84.23,20.84.51v4.14c0,.28-.23.51-.51.51h-1.88c-.28,0-.52-.23-.52-.52V.52C17.93.23,18.17,0,18.45,0Z"/>
        <path class="cls-1" d="m22.54,1.98h-.66v2.67c0,.86-.7,1.55-1.55,1.55h-1.88c-.86,0-1.55-.7-1.55-1.55V1.98h-8.25v2.67c0,.86-.7,1.55-1.55,1.55h-1.88c-.86,0-1.55-.7-1.55-1.55V1.98h-.66C1.34,1.98,0,3.32,0,4.97v16.85c0,1.65,1.34,2.99,2.99,2.99h19.55c1.65,0,2.99-1.34,2.99-2.99V4.97c0-1.65-1.34-2.99-2.99-2.99Zm1.1,19.84c0,.61-.49,1.1-1.1,1.1H2.99c-.61,0-1.1-.49-1.1-1.1v-11.3h21.75v11.3Z"/>
      </g>
      <rect class="cls-1" x="4.01" y="12.99" width="2.67" height="2.67"/>
      <rect class="cls-1" x="8.84" y="12.99" width="2.67" height="2.67"/>
      <rect class="cls-1" x="13.67" y="12.99" width="2.67" height="2.67"/>
      <rect class="cls-1" x="18.51" y="12.99" width="2.67" height="2.67"/>
      <rect class="cls-1" x="4.01" y="17.66" width="2.67" height="2.67"/>
      <rect class="cls-1" x="8.84" y="17.66" width="2.67" height="2.67"/>
      <rect class="cls-1" x="13.67" y="17.66" width="2.67" height="2.67"/>
      <rect class="cls-1" x="18.51" y="17.66" width="2.67" height="2.67"/>
    </g>
  </g>
</svg>