<?xml version="1.0" encoding="UTF-8"?>
<svg id="_レイヤー_2" data-name="レイヤー 2" xmlns="http://www.w3.org/2000/svg" viewBox="0 0 282.65 36.15">
  <defs>
    <style>
      .cls-1 {
        stroke-width: 0px;
      }
    </style>
  </defs>
  <g id="_レイヤー_1-2" data-name="レイヤー 1">
    <g>
      <path class="cls-1" d="m0,35.35V.8l1.85-.8v32.23h4.27l-.37,3.12H0Z"/>
      <path class="cls-1" d="m50.8,35.35V.8h7.28l.23,3.12h-5.67v12.34h4.76v3.12h-4.76v12.84h6l-.22,3.12h-7.63Z"/>
      <path class="cls-1" d="m112.18.8l1.85-.61v35.96h-.04l-9.01-27.9h.59v27.09l-1.85.4V0h.67l9.01,27.74h-1.22V.8Z"/>
      <path class="cls-1" d="m165.48,0h-.65l-6.85,35.35,1.6.81,2.73-14.4h5.77l2.77,14.3,1.48-.71L165.48,0Zm-2.58,18.63l2.26-11.53,2.24,11.53h-4.49Z"/>
      <path class="cls-1" d="m215.68,35.75V.8l1.85-.8v16.26h7.73V.8l1.85-.8v35.35l-1.85.4v-16.37h-7.73v15.96l-1.85.4Z"/>
      <path class="cls-1" d="m282.45,34.54c-.87.91-1.93,1.61-2.89,1.61-4.19,0-7.85-7.81-7.85-18.08s3.66-18.08,7.85-18.08c.96,0,2.02.7,2.89,1.61l.2,3.83c-.63-1.11-1.88-2.32-3.2-2.32-3.54,0-5.56,6.65-5.56,14.91s2.01,15,5.56,15c1.43,0,2.58-1.21,3.2-2.31l-.2,3.83Z"/>
    </g>
  </g>
</svg>