<?xml version="1.0" encoding="UTF-8"?>
<svg id="_レイヤー_2" data-name="レイヤー 2" xmlns="http://www.w3.org/2000/svg" viewBox="0 0 305.37 39.06">
  <defs>
    <style>
      .cls-1 {
        fill: #fff;
        stroke-width: 0px;
      }
    </style>
  </defs>
  <g id="_レイヤー_1-2" data-name="レイヤー 1">
    <g>
      <path class="cls-1" d="m0,38.19V.87l2-.87v34.82h4.62l-.4,3.37H0Z"/>
      <path class="cls-1" d="m54.89,38.19V.87h7.87l.25,3.37h-6.12v13.33h5.15v3.37h-5.15v13.87h6.49l-.23,3.37h-8.25Z"/>
      <path class="cls-1" d="m121.2.87l2-.65v38.85h-.04l-9.73-30.14h.64v29.27l-2,.43V0h.72l9.73,29.97h-1.32V.87Z"/>
      <path class="cls-1" d="m178.78,0h-.7l-7.4,38.19,1.73.87,2.95-15.56h6.23l2.99,15.45,1.6-.76L178.78,0Zm-2.79,20.13l2.44-12.46,2.42,12.46h-4.85Z"/>
      <path class="cls-1" d="m233.02,38.63V.87l2-.87v17.57h8.35V.87l2-.87v38.19l-2,.43v-17.68h-8.35v17.25l-2,.43Z"/>
      <path class="cls-1" d="m305.16,37.32c-.95.98-2.08,1.74-3.13,1.74-4.53,0-8.48-8.43-8.48-19.53s3.95-19.53,8.48-19.53c1.04,0,2.18.76,3.13,1.74l.22,4.13c-.68-1.2-2.03-2.5-3.46-2.5-3.83,0-6.01,7.19-6.01,16.11s2.18,16.2,6.01,16.2c1.55,0,2.78-1.3,3.46-2.5l-.22,4.13Z"/>
    </g>
  </g>
</svg>