<?xml version="1.0" encoding="UTF-8"?>
<svg id="_レイヤー_2" data-name="レイヤー 2" xmlns="http://www.w3.org/2000/svg" viewBox="0 0 64.51 43.24">
  <defs>
    <style>
      .cls-1 {
        stroke: #fff;
        stroke-miterlimit: 1;
        stroke-width: .3px;
      }

      .cls-1, .cls-2 {
        fill: #ffffff;
      }

      .cls-2 {
        stroke-width: 0px;
      }
    </style>
  </defs>
  <g id="_レイヤー_1-2" data-name="レイヤー 1">
    <g>
      <g>
        <rect class="cls-2" x="2.08" y="19.54" width="1.96" height="23.7"/>
        <path class="cls-2" d="m30.97,28.23l1.03,1.66c1.22,2.04,1.31,4.67.24,7.22-.88,2.11-2.47,3.83-3.86,4.18l.47,1.9c2.02-.5,4.06-2.59,5.19-5.32,1.3-3.13,1.17-6.4-.37-8.97l-1.06-1.7c-2.85-4.47-5.09-8.01,2.29-12.81l-1.07-1.64c-9,5.86-5.75,10.99-2.87,15.51Z"/>
        <path class="cls-2" d="m63.94,21.98v-1.96h-5.54v-7.81h-1.96v7.81h-3.24v1.96h3.24v13.58c0,2.9.79,5.04,2.35,6.34,2.05,1.72,4.63,1.28,4.74,1.26l-.34-1.93s-1.82.29-3.16-.84c-1.09-.92-1.64-2.54-1.64-4.83v-13.58h5.54Z"/>
        <path class="cls-2" d="m4.96,15.33c0,1.25-.91,2.27-2.03,2.27s-2.03-1.02-2.03-2.27.91-2.27,2.03-2.27,2.03,1.02,2.03,2.27Z"/>
      </g>
      <g>
        <path class="cls-2" d="m1.08,7.81V.18l.41-.18v7.12h.94l-.08.69h-1.27Z"/>
        <path class="cls-2" d="m12.3,7.81V.18h1.61l.05.69h-1.25v2.73h1.05v.69h-1.05v2.84h1.33l-.05.69h-1.69Z"/>
        <path class="cls-2" d="m25.86.18l.41-.13v7.94h0l-1.99-6.16h.13v5.98l-.41.09V0h.15l1.99,6.13h-.27V.18Z"/>
        <path class="cls-2" d="m37.63,0h-.14l-1.51,7.81.35.18.6-3.18h1.27l.61,3.16.33-.16-1.51-7.81Zm-.57,4.11l.5-2.55.49,2.55h-.99Z"/>
        <path class="cls-2" d="m48.72,7.9V.18l.41-.18v3.59h1.71V.18l.41-.18v7.81l-.41.09v-3.61h-1.71v3.53l-.41.09Z"/>
        <path class="cls-2" d="m63.47,7.63c-.19.2-.43.36-.64.36-.93,0-1.73-1.72-1.73-3.99s.81-3.99,1.73-3.99c.21,0,.45.16.64.36l.04.85c-.14-.24-.42-.51-.71-.51-.78,0-1.23,1.47-1.23,3.29s.44,3.31,1.23,3.31c.32,0,.57-.27.71-.51l-.04.85Z"/>
      </g>
      <line class="cls-1" y1="9.64" x2="64.51" y2="9.64"/>
    </g>
  </g>
</svg>