<?xml version="1.0" encoding="UTF-8"?>
<svg id="_レイヤー_2" data-name="レイヤー 2" xmlns="http://www.w3.org/2000/svg" viewBox="0 0 125.82 38.46">
  <defs>
    <style>
      .cls-1 {
        fill: #060001;
        stroke-width: 0px;
      }
    </style>
  </defs>
  <g id="_レイヤー_1-2" data-name="レイヤー 1">
    <g>
      <g>
        <path class="cls-1" d="m22.94,6.47V.15h.78v5.59h2.72v.73h-3.5Z"/>
        <path class="cls-1" d="m37.46,6.47V.15h3.42v.73h-2.64v1.92h2.24v.73h-2.24v2.22h2.82v.73h-3.6Z"/>
        <path class="cls-1" d="m51.73,6.47V.13h.74l2.32,4.59h0V.13h.63v6.34h-.72l-2.33-4.63h-.01v4.63h-.63Z"/>
        <path class="cls-1" d="m65.74,6.47l1.99-6.32h.78l1.99,6.32h-.82l-.48-1.58h-2.31l-.48,1.58h-.67Zm1.39-2.31h1.85l-.93-3.02-.92,3.02Z"/>
        <path class="cls-1" d="m80.82,6.47V.15h.78v2.76h2.14V.15h.78v6.32h-.78v-2.83h-2.14v2.83h-.78Z"/>
        <path class="cls-1" d="m99.34,6.27c-.52.23-1.01.35-1.47.35-.8,0-1.45-.3-1.94-.9-.49-.6-.74-1.39-.74-2.38s.24-1.8.73-2.42c.49-.62,1.13-.93,1.92-.93.45,0,.92.09,1.43.29v.89c-.52-.3-1.01-.45-1.46-.45-.52,0-.95.24-1.29.72-.34.48-.51,1.09-.51,1.83s.19,1.36.57,1.84c.38.48.87.71,1.47.71.36,0,.79-.12,1.28-.35v.8Z"/>
      </g>
      <g>
        <path class="cls-1" d="m5.61,28.17c0,1.11.09,1.87.4,2.25.31.4.73.59,2.46.59,2.15,0,2.82-.07,4.21-2.82.19-.24.73-.14.9.14-.12,1.23-.69,3.19-1.02,3.83-1.25-.05-3.53-.07-5.47-.07h-3.17c-1.09,0-2.27.02-3.74.07-.21-.14-.26-.69-.07-.83l.9-.12c1.06-.14,1.21-.33,1.21-2.53v-8.8c0-2.2-.14-2.41-1.21-2.56l-.69-.09c-.24-.14-.24-.69.05-.83,1.23.05,2.41.07,3.55.07s2.32-.02,3.5-.07c.19.14.19.69,0,.83l-.62.09c-1.06.17-1.21.36-1.21,2.56v8.28Z"/>
        <path class="cls-1" d="m20,26.49c-.54,0-.59.05-.59.43,0,1.77,1.14,3.5,3.34,3.5.66,0,1.56-.14,2.2-1.23.26-.05.62.14.62.54-.97,2.01-2.72,2.7-4.14,2.7-3.19,0-4.92-2.25-4.92-4.83,0-2.98,2.15-5.3,5.11-5.3,2.46,0,3.79,1.59,3.79,3.41,0,.45-.12.78-.85.78h-4.54Zm1.56-1.04c.33,0,.71-.05.97-.21.12-.07.16-.31.16-.54,0-.78-.45-1.3-1.25-1.3-.99,0-1.85.95-1.85,1.7,0,.33.33.35,1.09.35h.88Z"/>
        <path class="cls-1" d="m52.66,23.18c.17.14.21.33.21.59,0,.38-.12.8-.35.95h-1.75c.05.21.07.43.07.83,0,1.87-1.11,4.14-4.85,4.14-.38,0-.71-.05-.97-.07-.24.09-.4.28-.4.57,0,.52.5.85,1.21.85.81,0,1.78-.05,2.89-.05,1.78,0,3.67.47,3.67,2.86,0,1.49-.9,2.82-2.13,3.57-1.23.73-2.77,1.04-4.14,1.04-3.41,0-4.64-1.56-4.64-3.03,0-.57.35-.95.76-1.18.47-.28.9-.59,1.16-.73.28-.17.21-.28.02-.33-.88-.28-1.47-1.06-1.47-1.89,0-.19.05-.38.17-.5.66-.43,1.37-.97,1.51-1.11.21-.17.31-.31.19-.52-1.18-.47-2.01-1.61-2.01-3.05,0-1.96,1.54-3.81,4.61-3.81,1.4,0,2.65.4,3.53.88h2.72Zm-6.67,10.25c-.64,0-1.11.14-1.33.31-.24.21-.33.52-.33.83,0,1.61,1.21,2.65,3.08,2.65,1.49,0,2.48-.73,2.48-1.87,0-1.37-1.02-1.92-2.32-1.92h-1.59Zm.52-4.8c.73,0,1.35-.69,1.35-2.41,0-1.92-.69-2.82-1.54-2.82-.73,0-1.44.71-1.44,2.32,0,1.8.69,2.91,1.63,2.91Z"/>
        <path class="cls-1" d="m61.44,25.83c0-.95,0-1.23-.45-1.51l-.33-.21c-.16-.14-.16-.57,0-.71,1.09-.31,2.72-.95,3.46-1.42.19,0,.33.07.43.21-.05.47-.09.8-.09,1.02,0,.17.05.24.24.28.64-.4,1.33-1.18,2.32-1.18.64,0,1.3.5,1.3,1.4,0,1.09-.76,1.54-1.51,1.54-.33,0-.61-.14-.92-.43-.54-.45-.76-.47-.9-.47-.33,0-.45.52-.45,1.42v3.64c0,1.66.09,1.85.88,1.92l.76.07c.19.14.19.69-.02.83-1.14-.05-2.08-.07-3.19-.07-.97,0-2.01.02-2.79.07-.21-.14-.21-.69-.02-.83l.45-.05c.78-.07.88-.28.88-1.94v-3.57Z"/>
        <path class="cls-1" d="m84.11,28.86c-.09,1.61.59,2.04,1.06,2.04.28,0,.52-.07.9-.28.21.05.35.33.28.54-.28.38-1.4,1.28-2.75,1.28-.83,0-1.35-.28-1.99-.83-.17-.14-.26-.19-.38-.19s-.26.09-.5.26c-.43.31-1.14.76-2.01.76-1.37,0-2.65-.83-2.65-2.48,0-1.21.73-1.94,2.46-2.46.9-.28,1.56-.47,2.22-.66.43-.12.54-.28.57-.47.02-.26.05-.52.05-.8,0-.9-.35-2.03-1.37-2.03-.57,0-1.06.33-1.23,1.35-.05.38-.19.59-.4.76-.35.26-1.28.54-1.7.54-.4,0-.54-.26-.54-.59,0-.62.57-1.37,1.14-1.82.8-.64,2.29-1.44,3.97-1.44,1.99,0,3.15.99,3.03,3.43l-.17,3.12Zm-2.84-.61c.02-.38,0-.45-.17-.43-1.06.14-1.99.54-1.99,1.66,0,.76.54,1.42,1.21,1.42.73,0,.88-.43.9-1.16l.05-1.49Z"/>
        <path class="cls-1" d="m94.9,25.78c0-.95,0-1.23-.45-1.51l-.33-.21c-.17-.14-.17-.57,0-.71,1.11-.31,2.82-.95,3.5-1.37.19,0,.33.07.43.21,0,.33-.07.9-.07,1.06,0,.14.05.19.12.19s.31-.12.45-.19c.52-.31,1.63-.95,2.72-.95,1.97,0,2.96,1.35,2.96,2.98v4.07c0,1.66.09,1.85.95,1.94l.38.05c.19.14.19.69-.02.83-.73-.05-1.73-.07-2.86-.07-.95,0-1.87.02-2.56.07-.21-.14-.21-.69-.02-.83l.43-.07c.54-.09.64-.26.64-1.56v-4c0-.92-.47-1.68-1.66-1.68-.66,0-1.14.31-1.33.57-.14.17-.19.45-.19.88v4.24c0,1.3.09,1.51.69,1.59l.38.05c.19.14.19.69-.02.83-.73-.05-1.49-.07-2.63-.07-.99,0-1.96.02-2.79.07-.21-.14-.21-.69-.02-.83l.38-.05c.85-.09.95-.28.95-1.94v-3.57Z"/>
        <path class="cls-1" d="m124.06,28.22c0,2.22.09,2.77.54,2.77s.62-.05,1.02-.19c.26.21.26.8.02,1.02-2.34.14-4.19.85-4.26.85-.17,0-.35-.14-.4-.33l.07-.73c-.02-.19-.12-.26-.21-.19-.83.52-1.68,1.02-2.56,1.02-2.7,0-4.52-2.11-4.52-4.66,0-3.34,2.51-5.47,5.63-5.47.52,0,1.09.05,1.35.12.17-.07.24-.26.24-.45v-3.03c0-.95,0-1.21-.47-1.49l-.4-.24c-.19-.14-.17-.57,0-.71,1.02-.24,2.46-.8,3.62-1.33.17,0,.31.05.4.17-.05.97-.07,1.96-.07,3.45v9.42Zm-3.08-3.15c0-.38-.07-.61-.17-.8-.28-.5-.8-.88-1.35-.88-1.21,0-2.39,1.25-2.39,3.74,0,1.56.71,3.72,2.65,3.72.33,0,.66-.09.97-.28.26-.17.28-.47.28-.9v-4.59Z"/>
      </g>
    </g>
  </g>
</svg>