<?xml version="1.0" encoding="UTF-8"?>
<svg id="_レイヤー_2" data-name="レイヤー 2" xmlns="http://www.w3.org/2000/svg" viewBox="0 0 93.6 41.93">
  <defs>
    <style>
      .cls-1 {
        fill: #231815;
      }

      .cls-1, .cls-2 {
        stroke-width: 0px;
      }

      .cls-2 {
        fill: #fff;
      }
    </style>
  </defs>
  <g id="_レイヤー_1-2" data-name="レイヤー 1">
    <g>
      <rect class="cls-1" y="32.88" width="93.51" height="9.05"/>
      <g>
        <polygon class="cls-2" points="20.33 39.98 20.33 34.48 20.62 34.35 20.62 39.48 21.3 39.48 21.24 39.98 20.33 39.98"/>
        <polygon class="cls-2" points="30.82 39.98 30.82 34.48 31.98 34.48 32.02 34.98 31.11 34.98 31.11 36.94 31.87 36.94 31.87 37.44 31.11 37.44 31.11 39.48 32.07 39.48 32.04 39.98 30.82 39.98"/>
        <polygon class="cls-2" points="42.6 34.48 42.9 34.39 42.9 40.11 42.89 40.11 41.46 35.67 41.55 35.67 41.55 39.98 41.26 40.04 41.26 34.35 41.36 34.35 42.8 38.77 42.6 38.77 42.6 34.48"/>
        <path class="cls-2" d="m52.76,34.35h-.11l-1.09,5.63.26.13.43-2.29h.92l.44,2.28.24-.11-1.09-5.63Zm-.41,2.97l.36-1.84.36,1.84h-.72Z"/>
        <polygon class="cls-2" points="62.43 40.04 62.43 34.48 62.72 34.35 62.72 36.94 63.96 36.94 63.96 34.48 64.25 34.35 64.25 39.98 63.96 40.04 63.96 37.44 62.72 37.44 62.72 39.98 62.43 40.04"/>
        <path class="cls-2" d="m74.81,39.85c-.14.14-.31.26-.46.26-.67,0-1.25-1.24-1.25-2.88s.58-2.88,1.25-2.88c.15,0,.32.11.46.26l.03.61c-.1-.18-.3-.37-.51-.37-.56,0-.89,1.06-.89,2.37s.32,2.39.89,2.39c.23,0,.41-.19.51-.37l-.03.61Z"/>
      </g>
      <g>
        <path class="cls-1" d="m22.16,20.7c-.6,1.32-1.39,2.45-2.34,3.39-.96.94-2.09,1.68-3.39,2.21-1.31.53-2.78.8-4.43.8s-3.3-.33-4.74-1c-1.44-.66-2.67-1.58-3.7-2.76-1.03-1.17-1.83-2.58-2.41-4.21-.58-1.63-.87-3.42-.87-5.35,0-1.57.22-3.17.67-4.81.45-1.63,1.16-3.11,2.12-4.44.97-1.33,2.23-2.42,3.77-3.27,1.55-.85,3.42-1.27,5.62-1.27,1.72,0,3.22.28,4.5.85,1.28.57,2.35,1.28,3.21,2.14.86.86,1.51,1.77,1.94,2.74.44.97.66,1.85.69,2.65h-.73c-.07-.94-.35-1.87-.83-2.78-.48-.91-1.14-1.72-1.98-2.45-.84-.73-1.83-1.31-2.98-1.76-1.15-.45-2.43-.67-3.83-.67-2.13,0-3.92.43-5.39,1.29-1.46.86-2.64,1.94-3.54,3.23-.89,1.29-1.54,2.7-1.94,4.23s-.6,2.96-.6,4.32c0,1.65.24,3.23.73,4.75s1.2,2.87,2.14,4.03c.94,1.16,2.1,2.09,3.47,2.79,1.37.7,2.92,1.05,4.66,1.05,1.55,0,2.94-.25,4.17-.76,1.23-.51,2.3-1.21,3.19-2.1.89-.89,1.62-1.96,2.18-3.19.56-1.23.93-2.56,1.12-3.99h.73c-.22,1.57-.63,3.02-1.23,4.34Z"/>
        <path class="cls-1" d="m25.79,13.52c.36-1.17.9-2.21,1.61-3.1.71-.89,1.59-1.61,2.63-2.16,1.04-.54,2.25-.82,3.63-.82s2.55.27,3.59.82c1.04.54,1.92,1.26,2.63,2.16.71.9,1.25,1.93,1.61,3.1.36,1.17.54,2.4.54,3.68s-.18,2.51-.54,3.68c-.36,1.17-.9,2.21-1.61,3.1-.71.9-1.59,1.61-2.63,2.14-1.04.53-2.25.8-3.63.8s-2.55-.27-3.59-.8c-1.04-.53-1.92-1.25-2.63-2.14-.71-.89-1.25-1.93-1.61-3.1-.36-1.17-.54-2.4-.54-3.68s.18-2.51.54-3.68Zm.67,7.09c.33,1.09.82,2.05,1.47,2.88.65.83,1.46,1.5,2.41,2,.96.5,2.06.74,3.32.74s2.33-.25,3.28-.74c.96-.5,1.76-1.16,2.41-2,.65-.83,1.14-1.8,1.47-2.88.33-1.09.49-2.23.49-3.41s-.16-2.29-.49-3.37c-.33-1.09-.82-2.05-1.47-2.88-.65-.83-1.46-1.51-2.41-2.01-.96-.51-2.05-.76-3.28-.76s-2.36.25-3.32.76c-.96.51-1.76,1.18-2.41,2.01-.65.83-1.14,1.8-1.47,2.88-.33,1.09-.49,2.21-.49,3.37s.16,2.32.49,3.41Z"/>
        <path class="cls-1" d="m43.06,7.87h3.16V3.74c0-.75.11-1.33.34-1.74.23-.41.53-.72.89-.93.36-.21.76-.33,1.2-.38.44-.05.85-.07,1.23-.07.34,0,.63.02.89.05.25.04.48.07.67.09v.73c-.34-.05-.64-.08-.91-.11-.27-.02-.53-.04-.8-.04-1.16,0-1.92.21-2.27.64-.35.42-.53,1.09-.53,2.01v3.88h4.03v.73h-4.03v17.92h-.73V8.6h-3.16v-.73Z"/>
        <path class="cls-1" d="m50.46,7.87h3.16V3.74c0-.75.11-1.33.34-1.74.23-.41.53-.72.89-.93.36-.21.76-.33,1.2-.38.44-.05.85-.07,1.23-.07.34,0,.63.02.89.05.25.04.48.07.67.09v.73c-.34-.05-.64-.08-.91-.11-.27-.02-.53-.04-.8-.04-1.16,0-1.92.21-2.27.64-.35.42-.53,1.09-.53,2.01v3.88h4.03v.73h-4.03v17.92h-.73V8.6h-3.16v-.73Z"/>
        <path class="cls-1" d="m59.85,26.52V7.87h.73v4.61h.07c.17-.7.44-1.36.8-1.98.36-.62.85-1.15,1.45-1.61.6-.46,1.32-.82,2.16-1.09.83-.27,1.81-.39,2.92-.36v.73c-1.28-.07-2.39.1-3.32.53-.93.42-1.7,1-2.3,1.74-.6.74-1.05,1.59-1.34,2.56-.29.97-.44,1.96-.44,2.98v10.56h-.73Z"/>
        <path class="cls-1" d="m69.34,20.84c.28,1.08.71,2.01,1.29,2.81.58.8,1.33,1.43,2.25,1.89.92.46,2.04.69,3.37.69,1.96,0,3.59-.51,4.88-1.54,1.29-1.03,2.1-2.57,2.41-4.63h.73c-.27,2.18-1.13,3.86-2.58,5.06-1.45,1.2-3.24,1.8-5.37,1.8-1.45.02-2.69-.21-3.72-.69-1.03-.48-1.87-1.17-2.52-2.05-.65-.88-1.14-1.92-1.45-3.12-.31-1.2-.47-2.49-.47-3.86,0-1.55.23-2.93.69-4.14.46-1.21,1.06-2.23,1.81-3.07.75-.83,1.62-1.47,2.61-1.9.99-.44,2.01-.65,3.05-.65,1.45,0,2.7.28,3.76.83,1.05.56,1.91,1.29,2.58,2.21.66.92,1.15,1.97,1.45,3.16.3,1.19.43,2.42.38,3.7h-15.6c.02,1.26.18,2.43.45,3.5Zm13.95-7.47c-.31-1.03-.78-1.93-1.4-2.7-.62-.77-1.38-1.38-2.3-1.83-.92-.45-1.98-.67-3.19-.67-1.02,0-1.97.19-2.85.58-.88.39-1.66.95-2.32,1.69-.67.74-1.2,1.63-1.61,2.67-.41,1.04-.65,2.21-.73,3.52h14.88c0-1.14-.16-2.22-.47-3.25Z"/>
        <path class="cls-1" d="m89.39,22.89c0,.7.08,1.25.24,1.63.16.39.36.68.6.87.24.19.51.31.8.34.29.04.58.05.87.05.36,0,.69,0,.98-.02.29-.01.5-.04.62-.09v.73c-.22.02-.43.05-.63.07-.21.02-.59.04-1.14.04-.85,0-1.57-.25-2.16-.74-.59-.5-.89-1.41-.89-2.74v-14.44h-3.41v-.73h3.41V2h.73v5.88h4.21v.73h-4.21v14.3Z"/>
      </g>
    </g>
  </g>
</svg>