<?xml version="1.0" encoding="UTF-8"?>
<svg id="_レイヤー_2" data-name="レイヤー 2" xmlns="http://www.w3.org/2000/svg" viewBox="0 0 109.9 37.85">
  <defs>
    <style>
      .cls-1 {
        fill: #231815;
        stroke-width: 0px;
      }
    </style>
  </defs>
  <g id="_レイヤー_1-2" data-name="レイヤー 1">
    <g>
      <g>
        <path class="cls-1" d="m11.96,37.67v-7.1h.87v6.28h3.06v.82h-3.93Z"/>
        <path class="cls-1" d="m28.29,37.67v-7.1h3.84v.82h-2.97v2.15h2.52v.82h-2.52v2.49h3.17v.82h-4.04Z"/>
        <path class="cls-1" d="m44.34,37.67v-7.13h.83l2.6,5.16h0v-5.16h.71v7.13h-.81l-2.62-5.21h-.01v5.21h-.71Z"/>
        <path class="cls-1" d="m60.09,37.67l2.24-7.1h.87l2.24,7.1h-.92l-.54-1.78h-2.6l-.54,1.78h-.75Zm1.56-2.6h2.07l-1.04-3.39-1.03,3.39Z"/>
        <path class="cls-1" d="m77.04,37.67v-7.1h.87v3.11h2.4v-3.11h.87v7.1h-.87v-3.18h-2.4v3.18h-.87Z"/>
        <path class="cls-1" d="m97.85,37.45c-.59.26-1.14.39-1.65.39-.9,0-1.63-.34-2.18-1.02-.55-.68-.83-1.57-.83-2.67s.27-2.02.82-2.72c.55-.69,1.27-1.04,2.15-1.04.5,0,1.04.11,1.61.32v1c-.59-.34-1.13-.5-1.64-.5-.59,0-1.07.27-1.45.81-.38.54-.57,1.23-.57,2.06s.21,1.53.64,2.07c.43.53.98.8,1.65.8.41,0,.89-.13,1.44-.4v.9Z"/>
      </g>
      <g>
        <path class="cls-1" d="m22.47,21.11c-1.36,0-2.07-.9-2.62-1.96-.42-.82-.78-1.69-1.13-2.55-2.24-5.53-4.47-11.07-6.7-16.6h-.8c-.25.41-.56.81-.74,1.25-2.16,5.41-4.37,10.8-6.42,16.25-.76,2.03-1.64,3.69-4.06,3.87v.27c.29.23.63.28.99.27,1.87-.01,3.74,0,5.61-.02.3,0,.81.25.85-.31.03-.5-.44-.45-.79-.47-.74-.06-1.24-.39-.97-1.19.56-1.72.81-3.76,2.04-4.97.94-.93,2.81-.22,4.26-.31.22-.01.45.02.67,0,.93-.11,1.49.23,1.76,1.16.29.97.78,1.88,1.04,2.86.23.89,1.15,1.7.35,2.79-.24.33.24.45.57.45,2,0,4.01.01,6.01.01.3,0,.71.05.74-.36.04-.43-.35-.44-.67-.44Zm-9.97-8.21c-1.15-.02-2.3-.02-3.45,0-.54,0-.73-.17-.53-.71.74-1.92,1.46-3.85,2.3-6.07l2.23,6.05c.17.47.03.75-.55.74Z"/>
        <path class="cls-1" d="m109.1,21.06c-1.01,0-1.65-.57-2.09-1.4-.38-.7-.76-1.4-1.06-2.13-2.37-5.84-4.73-11.69-7.09-17.53h-1.07c-2.53,6.4-5.05,12.81-7.6,19.2-.43,1.08-1.17,1.89-2.47,1.92-.35,0-.82-.01-.78.47.03.39.47.32.77.32,1.96,0,3.91.01,5.87.01.29,0,.7.11.7-.36,0-.41-.36-.44-.68-.45-1.12-.04-1.21-.7-.92-1.56.49-1.42,1.01-2.83,1.51-4.24.17-.49.49-.65,1-.64,1.6.03,3.2.03,4.8,0,.63-.01.92.18,1.13.81.5,1.5,1.15,2.96,1.7,4.45.11.3.34.68.12,1.02-.73,1.09.12.94.74.94,2.05.01,4.09.01,6.14.02.29-.72-.16-.85-.71-.85Zm-13.97-8.25c.81-2.17,1.59-4.26,2.51-6.74.9,2.44,1.67,4.54,2.48,6.74h-4.99Z"/>
        <path class="cls-1" d="m55.82,21.1c-1.57-.17-2.68-1.14-3.66-2.23-1.36-1.52-2.66-3.1-3.95-4.68-.56-.68-1.37-1.39-1.47-2.16-.1-.74,1-1.22,1.53-1.85,1.58-1.86,2.25-3.98,1.42-6.3-.83-2.32-2.82-3.04-5.13-3.38-1.62-.24-3.18.14-4.77.07-1.42-.06-2.84,0-4.25-.22-.43-.07-1.02,0-1.04.55-.02.4.54.36.86.37,1.33.05,1.78.85,1.77,2.02-.02,5.2-.04,10.41-.09,15.61,0,1.11-.16,2.18-1.66,2.23-.3,0-.52.23-.49.51.05.37.4.26.65.26,1.16,0,2.31,0,3.47,0,1.07,0,2.14.04,3.2-.02.43-.02,1.17.33,1.24-.31.08-.71-.73-.5-1.14-.52-.89-.04-1.35-.53-1.4-1.31-.12-1.9-.15-3.82-.2-5.72-.02-.6.31-.84.92-.87,1.18-.06,2.07.17,2.8,1.3,1.22,1.9,2.64,3.68,4.03,5.46.84,1.08,1.97,1.83,3.36,1.95,1.28.1,2.58.04,3.87.03.26,0,.68.19.67-.36,0-.35-.25-.41-.54-.45Zm-9.82-11.67c-.71,1.9-2.87,2.79-4.71,1.95-.47-.21-.54-.59-.55-.96-.03-2.49-.03-4.98-.05-7.46,0-.71.42-.86,1.04-.89,2.86-.12,4.67,1.82,4.67,5.15.1.69-.12,1.45-.41,2.21Z"/>
        <path class="cls-1" d="m75.27,21.11c-1.86-.24-2.05-.44-2.06-2.38-.02-4.67-.01-9.35-.01-14.02,0-1.72-.44-3.71,2.34-3.62-.21-.64-.6-.73-.85-.7-2.3.25-4.6.26-6.9-.03-.31-.04-.68.11-.69.48-.02.44.43.41.69.42,1.12.05,1.47.61,1.5,1.71.16,5.51.15,11.03-.02,16.54-.03.94-.33,1.54-1.34,1.61-.37.02-.8.08-.76.53.04.43.5.26.78.26,2.45.01,4.9.02,7.34,0,.29,0,.82.22.8-.37-.02-.51-.5-.38-.83-.42Z"/>
      </g>
    </g>
  </g>
</svg>