<?xml version="1.0" encoding="UTF-8"?>
<svg id="_レイヤー_2" data-name="レイヤー 2" xmlns="http://www.w3.org/2000/svg" viewBox="0 0 69.34 46.47">
  <defs>
    <style>
      .cls-1 {
        stroke: #fff;
        stroke-miterlimit: 1;
        stroke-width: .32px;
      }

      .cls-1, .cls-2 {
        fill: #ffffff;
      }

      .cls-2 {
        stroke-width: 0px;
      }
    </style>
  </defs>
  <g id="_レイヤー_1-2" data-name="レイヤー 1">
    <g>
      <path class="cls-2" d="m50.34,23.63v-2.1h-5.95s0-8.4,0-8.4h-2.1v8.4h-3.48v2.1h3.48v14.59c0,3.12.85,5.41,2.53,6.82,2.21,1.84,4.98,1.37,5.1,1.35l-.37-2.07s-1.96.31-3.4-.91c-1.17-.99-1.76-2.73-1.76-5.19v-14.59h5.95Z"/>
      <g>
        <rect class="cls-2" x="26.91" y="21" width="2.1" height="25.47"/>
        <path class="cls-2" d="m30,15.84c0,1.35-.98,2.44-2.19,2.44s-2.19-1.09-2.19-2.44.98-2.44,2.19-2.44,2.19,1.09,2.19,2.44Z"/>
      </g>
      <g>
        <path class="cls-2" d="m1.16,8.39V.19l.44-.19v7.65h1.01l-.09.74h-1.36Z"/>
        <path class="cls-2" d="m13.22,8.39V.19h1.73l.06.74h-1.35v2.93h1.13v.74h-1.13v3.05h1.43l-.05.74h-1.81Z"/>
        <path class="cls-2" d="m27.79.19l.44-.14v8.53h0l-2.14-6.62h.14v6.43l-.44.1V0h.16l2.14,6.59h-.29V.19Z"/>
        <path class="cls-2" d="m40.44,0h-.16l-1.63,8.39.38.19.65-3.42h1.37l.66,3.4.35-.17-1.63-8.39Zm-.61,4.42l.54-2.74.53,2.74h-1.07Z"/>
        <path class="cls-2" d="m52.36,8.49V.19l.44-.19v3.86h1.84V.19l.44-.19v8.39l-.44.1v-3.88h-1.84v3.79l-.44.1Z"/>
        <path class="cls-2" d="m68.21,8.2c-.21.22-.46.38-.69.38-1,0-1.86-1.85-1.86-4.29s.87-4.29,1.86-4.29c.23,0,.48.17.69.38l.05.91c-.15-.26-.45-.55-.76-.55-.84,0-1.32,1.58-1.32,3.54s.48,3.56,1.32,3.56c.34,0,.61-.29.76-.55l-.05.91Z"/>
      </g>
      <line class="cls-1" y1="10.36" x2="69.34" y2="10.36"/>
      <path class="cls-2" d="m3.97,36.65c-.59-9.63-1.54-23.57-1.54-23.57H.45l2.04,33.15,2.06.06s2.75-17.27,4.13-26c1.15,8.75,3.42,26.03,3.42,26.03l2.06-.05,2.76-33.19h-2.08s-1.14,13.78-1.95,23.42c-1.27-9.67-3.13-23.37-3.13-23.37h-1.99s-2.27,13.92-3.8,23.53Z"/>
      <path class="cls-2" d="m66.93,23.42c-.82-1.14-1.85-1.71-3.08-1.71-.83,0-1.56.28-2.22.81v-9.82h-2.07v14.29c-.01.21-.02.42-.02.64v16.1h.02v2.36h2.07v-19.72c.1-.48.28-.92.55-1.33.44-.66.99-.99,1.66-.99.61,0,1.15.3,1.62.9.47.6.7,1.37.7,2.3v18.88h1.99v-18.5c0-1.67-.41-3.07-1.23-4.21Z"/>
    </g>
  </g>
</svg>