<?xml version="1.0" encoding="utf-8"?>
<!-- Generator: Adobe Illustrator 20.1.0, SVG Export Plug-In . SVG Version: 6.00 Build 0)  -->
<svg version="1.1" id="レイヤー_1" xmlns="http://www.w3.org/2000/svg" xmlns:xlink="http://www.w3.org/1999/xlink" x="0px"
	 y="0px" viewBox="0 0 960 560" style="enable-background:new 0 0 960 560;" xml:space="preserve">
<style type="text/css">
	.st0{fill:#040000;}
</style>
<g>
	<path class="st0" d="M580,349.7H379.1V212.1H580V349.7z M380.2,348.7h198.7V213.2H380.2V348.7z"/>
	<path class="st0" d="M401.7,249.3v-18.8l1-0.4v17.5h2.3l-0.2,1.7H401.7z"/>
	<path class="st0" d="M429.4,249.3v-18.8h4l0.1,1.7h-3.1v6.7h2.6v1.7h-2.6v7h3.3l-0.1,1.7H429.4z"/>
	<path class="st0" d="M462.7,230.5l1-0.3v19.6h0l-4.9-15.2h0.3v14.7l-1,0.2v-19.4h0.4l4.9,15.1h-0.7V230.5z"/>
	<path class="st0" d="M491.7,230.1h-0.4l-3.7,19.2l0.9,0.4l1.5-7.8h3.1l1.5,7.8l0.8-0.4L491.7,230.1z M490.3,240.2l1.2-6.3l1.2,6.3
		H490.3z"/>
	<path class="st0" d="M552.5,299.4v-36.8l2-0.9v34.4h4.6l-0.4,3.3H552.5z"/>
	<path class="st0" d="M430.9,299.4v-36.8h7.8l0.3,3.3h-6V279h5.1v3.3h-5.1v13.7h6.4l-0.2,3.3H430.9z"/>
	<path class="st0" d="M469.8,262.6l2-0.6v38.3h0l-9.6-29.7h0.6v28.9l-2,0.4v-38.1h0.7l9.6,29.6h-1.3V262.6z"/>
	<path class="st0" d="M526.6,261.1h-0.7l-7.3,37.7l1.7,0.9l2.9-15.4h6.2l2.9,15.2l1.6-0.8L526.6,261.1z M523.9,281l2.4-12.3
		l2.4,12.3H523.9z"/>
	<path class="st0" d="M519,249.5v-19l1-0.4v8.8h4.2v-8.4l1-0.4v19.2l-1,0.2v-8.9H520v8.7L519,249.5z"/>
	<path class="st0" d="M555.4,248.9c-0.5,0.5-1,0.9-1.6,0.9c-2.3,0-4.3-4.2-4.3-9.8c0-5.6,2-9.8,4.3-9.8c0.5,0,1.1,0.4,1.6,0.9
		l0.1,2.1c-0.3-0.6-1-1.3-1.7-1.3c-1.9,0-3,3.6-3,8.1c0,4.5,1.1,8.2,3,8.2c0.8,0,1.4-0.7,1.7-1.3L555.4,248.9z"/>
	<rect x="399.1" y="253.4" class="st0" width="158.9" height="0.8"/>
	<rect x="399.1" y="305.6" class="st0" width="158.9" height="0.8"/>
	<path class="st0" d="M403.4,266.3h0.5c2,0,3.7,0.6,3.7,6.6c0,5.7-1.9,6.6-3.7,6.6h-0.5V266.3z M403.4,283.2h0.4l4.4,16.1h2
		l-4.7-16.5c2.3-0.5,3.7-4.5,3.7-10.1c0-8.3-2.6-10.1-5.4-10.1h-2.1v36.8h1.6V283.2z"/>
	<path class="st0" d="M498.5,299.3h-1.6v-33h-3.5v-3.8h8.8v3.8h-3.6V299.3z"/>
	<path class="st0" d="M435.5,330.1v-18.8l1-0.4v17.5h2.3l-0.2,1.7H435.5z"/>
	<path class="st0" d="M452.1,330.1v-18.8l1-0.4v17.5h2.3l-0.2,1.7H452.1z"/>
	<path class="st0" d="M468.2,330.1v-18.8h4l0.1,1.7h-3.1v6.7h2.6v1.7h-2.6v7h3.3l-0.1,1.7H468.2z"/>
	<path class="st0" d="M555.1,311.3l1-0.3v19.6h0l-4.9-15.2h0.3v14.7l-1,0.2v-19.4h0.4l4.9,15.1h-0.7V311.3z"/>
	<path class="st0" d="M420.6,312.8c1.7,0,3.1,3.6,3.1,7.9c0,4.3-1.4,7.9-3.1,7.9c-1.7,0-3.1-3.6-3.1-7.9
		C417.4,316.4,418.8,312.8,420.6,312.8z M420.6,310.9c-2.2,0-4,4.4-4,9.8c0,5.5,1.8,9.8,4,9.8c2.2,0,4-4.3,4-9.8
		C424.5,315.3,422.7,310.9,420.6,310.9z"/>
	<path class="st0" d="M504.1,330l-1.2,0.1v-17.7h-1.6v-1.3h4.5v1.3h-1.7V330z"/>
	<path class="st0" d="M520.7,329.9l-1.2,0.3v-19h1.2V329.9z"/>
	<path class="st0" d="M536.7,312.8c1.7,0,3.1,3.6,3.1,7.9c0,4.3-1.4,7.9-3.1,7.9c-1.7,0-3.1-3.6-3.1-7.9
		C533.6,316.4,535,312.8,536.7,312.8z M536.7,310.9c-2.2,0-4,4.4-4,9.8c0,5.5,1.8,9.8,4,9.8c2.2,0,4-4.3,4-9.8
		C540.7,315.3,538.9,310.9,536.7,310.9z"/>
	<path class="st0" d="M406.8,329.7c-0.5,0.5-1,0.9-1.6,0.9c-2.3,0-4.3-4.2-4.3-9.8s2-9.8,4.3-9.8c0.5,0,1.1,0.4,1.6,0.9l0.1,2.1
		c-0.3-0.6-1-1.3-1.7-1.3c-1.9,0-3,3.6-3,8.1c0,4.5,1.1,8.2,3,8.2c0.8,0,1.4-0.7,1.7-1.3L406.8,329.7z"/>
	<path class="st0" d="M489.8,329.7c-0.5,0.5-1,0.9-1.6,0.9c-2.3,0-4.3-4.2-4.3-9.8s2-9.8,4.3-9.8c0.5,0,1.1,0.4,1.6,0.9l0.1,2.1
		c-0.3-0.6-1-1.3-1.7-1.3c-1.9,0-3,3.6-3,8.1c0,4.5,1.1,8.2,3,8.2c0.8,0,1.4-0.7,1.7-1.3L489.8,329.7z"/>
</g>
</svg>
