<?xml version="1.0" encoding="UTF-8"?>
<svg id="_レイヤー_2" data-name="レイヤー 2" xmlns="http://www.w3.org/2000/svg" viewBox="0 0 97.94 40.78">
  <defs>
    <style>
      .cls-1 {
        fill-rule: evenodd;
      }

      .cls-1, .cls-2 {
        fill: #ffffff;
        stroke-width: 0px;
      }
    </style>
  </defs>
  <g id="_レイヤー_1-2" data-name="レイヤー 1">
    <g>
      <path class="cls-1" d="m36.88,18.87h.17v-1.1h-.17c-.02-.15-.04-.31-.06-.46h-.17c-.04-.26-.1-.17-.12-.46h-.23v-.23c-.14-.02-.27-.04-.41-.06v-.17c-.17-.02-.35-.04-.52-.06v-.23c-.36,0-.7-.03-.98-.06v-.17c-.66-.02-1.31-.04-1.97-.06v-.17h-2.89v.17c-.66.02-1.31.04-1.97.06v.17c-.41.02-.81.04-1.22.06v.17h-.06c-.13.14-.42.13-.69.12v.17c-.25.02-.5.04-.75.06v.17l-.52.06v.23c-.15.02-.31.04-.46.06v.17c-.17.02-.35.04-.52.06v.17c-.15.02-.31.04-.46.06v.29h-.29v.17c-.14.02-.27.04-.41.06v.17c-.07.05,0,0-.06.06h-.29v.17h-.17c-.05.07,0,0-.06.06v.23h-.23v.06h-.06v.17h-.17v.06h-.06v.17h-.17v.06h-.06v.17c-.21.02-.25.05-.29.23h-.17c-.02.1-.04.19-.06.29h-.17v.06h-.06v.17h-.17v.35h-.23v.23h-.29c-.02.15-.04.31-.06.46h-.17v.29h-.23c-.02.14-.04.27-.06.41h-.06v.06h-.17c-.02.15-.04.31-.06.46h-.17c-.02.15-.04.31-.06.46h-.17c-.02.17-.04.35-.06.52h-.17c-.05.07,0,0-.06.06-.02.15-.04.31-.06.46h-.17c0,.27-.02.5-.06.69h-.17v.58h-.12v.17h-.12c-.02.25-.04.5-.06.75h-.06v.06h-.17c0,.36-.03.7-.06.98h-.17c0,.49-.02,1.04-.06,1.45h-.17c0,.39-.04.72-.06,1.04h-.23c0,.36-.03.7-.06.98h-.17c0,.27-.02.5-.06.69h-.17v.58h-.23v.46h-.06c-.05.08-.04.1-.06.23h-.17c-.02.17-.04.35-.06.52h-.17c-.02.15-.04.31-.06.46-.06.02-.12.04-.17.06-.02.15-.04.31-.06.46h-.23c-.02.15-.04.31-.06.46h-.17c-.02.1-.04.19-.06.29h-.17v.29h-.12v.17h-.17v.23h-.06v.06h-.17v.29h-.23v.23h-.12v.17c-.18.05-.21.08-.23.29h-.17v.06h-.06v.17h-.17v.06h-.06v.23h-.23v.23h-.23v.06h-.06v.17h-.17v.06h-.06v.17c-.26.04-.17.1-.46.12v.23h-.29v.17c-.14.02-.27.04-.41.06v.23h-.35v.17h-.17v.12h-.35v.17c-.21.02-.42.04-.64.06v.23h-.81v.23c-.38.02-.82.06-1.27.06v.12h-1.62v-.12h-1.27v-.12h-.17v-.17h-.87v-.29h-.17c.04-.16.01-.13.17-.17v-1.79h-.17c-.02-.15-.04-.31-.06-.46h-.23v-.23c-.15-.02-.31-.04-.46-.06v-.23c-.34,0-.79-.03-1.04.06v.23h-.29v.17h-.17v.06h-.06v.17h-.23c-.02.17-.04.35-.06.52H0v1.33h.17c.02.17.04.35.06.52h.23c.02.1.04.19.06.29h.17c.03.12,0,.05.06.12v.06h.17v.23l.52.06v.17h.81v.23h.98v.06c.14.02.27.04.41.06v.12c.75.13,1.76.06,2.61.06s1.82.07,2.55-.06v-.12h.12s.04-.08.06-.12h1.27v-.17c.27-.03.58-.06.93-.06v-.23h.75v-.29h.58v-.17c.15-.02.31-.04.46-.06v-.17c.17-.02.35-.04.52-.06v-.23c.15-.02.31-.04.46-.06v-.17c.15-.02.31-.04.46-.06v-.23h.29v-.17c.15-.02.31-.04.46-.06v-.29h.23v-.23h.35v-.17h.17v-.06h.06v-.23h.17v-.06h.06v-.17h.17v-.06h.06v-.17c.15,0,.2-.02.29-.06v-.23h.17v-.29h.23v-.23h.29c.02-.14.04-.27.06-.41h.17c.02-.1.04-.19.06-.29h.17v-.29h.23c.02-.15.04-.31.06-.46h.23c.02-.17.04-.35.06-.52h.17c.02-.15.04-.31.06-.46h.17c.02-.15.04-.31.06-.46h.06v-.06h.17c.02-.15.04-.31.06-.46h.17c.02-.25.04-.5.06-.75h.17v-.58h.29c0-.34.03-.66.06-.93h.17c0-.36.03-.7.06-.98h.17v-1.04h.12v-.17h.12v-1.04h.06c.05-.08.04-.1.06-.23h.17v-.81h.23c0-.34.03-.66.06-.93h.17c0-.22,0-.44.06-.58h.23c.02-.23.04-.46.06-.69h.17c.02-.15.04-.31.06-.46h.17c.02-.17.04-.35.06-.52h.17c.02-.15.04-.31.06-.46h.23c.02-.17.04-.35.06-.52h.17v-.29h.23c.02-.15.04-.31.06-.46h.23v-.29h.23c.02-.14.04-.27.06-.41h.17c.02-.1.04-.19.06-.29h.23v-.29h.23v-.29h.23v-.23h.23v-.23h.29v-.29h.23v-.23h.29v-.17h.23v-.06h.06v-.17c.14-.02.27-.04.41-.06v-.29h.35v-.17c.15-.02.31-.04.46-.06v-.17c.17-.02.35-.04.52-.06v-.17h.17v-.12h.52c.03-.12,0-.05.06-.12.14-.14.47-.13.75-.12v-.17h.41v-.06h.93c.75,0,1.6,0,2.26.06v.17c.39,0,.72.04,1.04.06v.17c.15.02.31.04.46.06v.17h-.17v1.85h.17c.02.15.04.31.06.46h.17v.23h.35v.23h1.27v-.17c.14-.02.27-.04.41-.06.02-.15.04-.31.06-.46h.23c.02-.17.04-.35.06-.52Zm25.65,7.93h-.12v-1.33h-.17c-.03-.28-.06-.63-.06-.98h-.17c-.02-.25-.04-.5-.06-.75h-.17v-.17h-.12v-.52h-.17c-.02-.17-.04-.35-.06-.52h-.17c-.02-.15-.04-.31-.06-.46h-.17v-.06c-.1-.1-.12-.26-.12-.46h-.17c-.02-.15-.04-.31-.06-.46h-.23v-.29h-.17v-.06h-.06v-.23h-.17v-.17h-.12v-.23h-.23v-.23h-.23v-.29h-.17v-.06h-.06v-.17h-.06v-.06h-.17v-.17h-.06v-.06h-.17v-.17h-.06v-.06h-.17v-.06h-.06v-.17h-.29v-.23h-.23v-.23c-.15-.02-.31-.04-.46-.06v-.23h-.29v-.23c-.15-.02-.31-.04-.46-.06v-.17h-.29v-.12h-.17v-.12c-.26,0-.28-.07-.46-.12v-.17c-.19-.02-.39-.04-.58-.06v-.17h-.52v-.23c-.23-.02-.46-.04-.69-.06v-.23c-.36,0-.7-.03-.98-.06v-.17c-.66-.02-1.31-.04-1.97-.06v-.17h-2.66v.17c-.66.02-1.31.04-1.97.06v.17c-.28.03-.63.06-.98.06v.23c-.23.02-.46.04-.69.06-.03.12,0,.05-.06.12-.12.13-.38.12-.64.12v.23h-.58v.23c-.15.02-.31.04-.46.06v.23h-.46v.23h-.35v.23h-.41v.29h-.29v.17h-.23v.06h-.06v.17h-.17v.06h-.06v.17c-.19.02-.17.05-.29.12v.17c-.14.02-.27.04-.41.06-.02.14-.04.27-.06.41-.21.02-.25.05-.29.23h-.17v.29c-.15,0-.2.02-.29.06v.23h-.17v.29h-.23c-.02.14-.04.27-.06.41h-.23v.35h-.23c-.02.14-.04.27-.06.41h-.17c-.02.17-.04.35-.06.52h-.23c-.02.17-.04.35-.06.52h-.17c-.02.23-.04.46-.06.69h-.17v.58h-.23c-.02.31-.04.62-.06.93h-.23c-.02.48-.04.97-.06,1.45h-.17v3.65h.17c.02.48.04.97.06,1.45h.17v.06c.14.14.13.47.12.75h.12v.17h.12v.58h.17c.02.21.04.42.06.64h.23v.52h.29v.46h.23v.35h.17c.02.15.04.31.06.46.16.02.17,0,.23.12v.12h.06v.06h.12v.17h.12v.23h.23v.23h.23v.29h.06v.06h.17v.17h.06v.06h.17v.17h.06v.06h.17c0,.15.02.2.06.29h.23v.17h.06v.06h.17v.17h.29c0,.34.11.31.41.35v.17c.1.02.19.04.29.06v.17h.29v.23c.15.02.31.04.46.06v.23c.17.02.35.04.52.06v.17c.15.02.31.04.46.06v.17c.22,0,.44,0,.58.06v.23c.23.02.46.04.69.06v.17c.23,0,.69-.06.81.06.16.04.13.01.17.17h.81v.06c.14.02.27.04.41.06v.17h5.1v-.17c.21-.01.33-.07.46-.12h.81v-.17c.27-.03.58-.06.93-.06v-.23h.58v-.17h.17v-.12h.46v-.23h.58v-.17c.14-.02.27-.04.41-.06,0-.15.02-.2.06-.29h.29v-.12h.17v-.12h.23v-.23h.35v-.17c.14-.02.27-.04.41-.06v-.29h.23v-.23h.29v-.23h.23v-.29h.23v-.23h.29v-.23h.23v-.23h.06v-.06h.17v-.23h.12v-.17h.17v-.23h.23c.02-.17.04-.35.06-.52h.17v-.06h.06v-.17h.17c.02-.17.04-.35.06-.52h.23c.02-.17.04-.35.06-.52h.17c.02-.15.04-.31.06-.46h.17c0-.22,0-.44.06-.58h.23c0-.31.02-.64.06-.87h.17c.02-.35.04-.69.06-1.04h.17v-1.04h.06c.02-.23.04-.46.06-.69h.12v-1.85h-.12v-.69Zm-3.88,2.14h-.17v1.85h-.12v.17h-.17c0,.42-.03.87-.06,1.22h-.17v.87h-.23v.69h-.23c-.02.23-.04.46-.06.69h-.23c-.02.17-.04.35-.06.52h-.17c-.02.17-.04.35-.06.52h-.17c-.02.26-.09.23-.12.46h-.17v.29h-.23c0,.14,0,.33-.06.41h-.06c-.13.14-.14.03-.17.29-.15,0-.2.02-.29.06v.23h-.17v.29h-.23v.23h-.23v.23h-.06v.06h-.29v.17h-.17v.06h-.06v.17c-.15.02-.31.04-.46.06v.23h-.29v.17c-.26.04-.17.1-.46.12v.17c-.19.02-.39.04-.58.06v.17c-.19.04-.43.06-.69.06v.17c-.13.02-.15.01-.23.06v.06h-1.04v.12h-.41v.12h-.98v-.06c-.23-.02-.46-.04-.69-.06v-.12c-.36,0-.7-.03-.98-.06v-.06h-.06v-.17c-.25-.02-.5-.04-.75-.06v-.17h-.52v-.23c-.15-.02-.31-.04-.46-.06v-.23c-.15-.02-.31-.04-.46-.06v-.17h-.35v-.23h-.23v-.23h-.23v-.29h-.23v-.23h-.29v-.23h-.23v-.29h-.23v-.29h-.23c0-.22.01-.24-.17-.29v-.17h-.12v-.23h-.23v-.35h-.17c-.02-.13-.06-.11-.06-.12v-.29h-.06v-.06h-.17c-.02-.17-.04-.35-.06-.52h-.17c-.02-.21-.04-.42-.06-.64h-.23v-.58h-.17v-.17h-.12v-.81h-.17c-.03-.28-.06-.63-.06-.98h-.17c-.04-.43-.06-.99-.06-1.51h-.17v-.46h-.12v-2.43h.06c.02-.23.04-.46.06-.69h.17c0-.51.02-1.08.06-1.51h.17c0-.36.03-.7.06-.98h.17c.02-.25.04-.5.06-.75h.06v-.06h.17c.02-.23.04-.46.06-.69h.17c.02-.17.04-.35.06-.52h.17c.02-.17.04-.35.06-.52h.17c.05-.07,0,0,.06-.06v-.41h.23c.02-.15.04-.31.06-.46h.17v-.35h.23v-.23h.12v-.17h.17c.02-.1.04-.19.06-.29h.17v-.06h.06v-.17h.17c.04-.1.08-.19.12-.29h.17v-.06h.06v-.17h.17v-.06h.06v-.17c.1-.02.19-.04.29-.06v-.17c.12-.02.23-.04.35-.06.05-.07,0,0,.06-.06v-.23h.29v-.17c.17-.02.35-.04.52-.06v-.17c.15-.02.31-.04.46-.06v-.23c.17-.02.35-.04.52-.06v-.12h.17v-.12h.81v-.17c.61-.06,1.39-.06,2.08-.06h.87v.06h.41v.17c.25.02.5.04.75.06.02.06.04.12.06.17.23.02.46.04.69.06v.23c.17.02.35.04.52.06v.17c.15.02.31.04.46.06v.17h.06v.06h.17v.06h.06v.17h.29v.23h.23v.23h.23s.04.08.06.12h.12c.05.18.08.21.29.23.02.14.04.27.06.41h.23v.23c.15,0,.2.02.29.06v.23h.12c.19.12-.12.23.29.29.02.15.04.31.06.46h.17v.06h.06c.02.14.04.27.06.41h.23v.35h.17c.02.21.04.42.06.64h.23c0,.18-.03.43.06.52v.06h.17c.02.25.04.5.06.75h.17c.02.25.04.5.06.75h.17c.04.36.06.83.06,1.27h.17c.02.14.04.27.06.41h.06v1.79h.17v1.33Zm7.3,11.64h.12v.12h3.59V15.86h-3.71v24.72Zm27.85-24.72v13.49c0,2.68.06,5.52-.06,8.11h-.17c-.02-.15-.04-.31-.06-.46h-.23v-.29h-.17c-.02-.1-.04-.19-.06-.29h-.17v-.17h-.12v-.23h-.23v-.29h-.17v-.23h-.06v-.06h-.17c-.02-.14-.04-.27-.06-.41h-.29v-.29h-.17v-.23h-.06v-.06h-.17c-.02-.14-.04-.27-.06-.41-.15,0-.2-.02-.29-.06v-.29h-.17v-.17h-.06v-.06h-.17c-.02-.14-.04-.27-.06-.41h-.06v-.06h-.17v-.23h-.06v-.06h-.17v-.17h-.06v-.06h-.17c-.02-.15-.04-.31-.06-.46h-.23v-.29h-.23v-.23h-.06v-.06h-.17c-.02-.14-.04-.27-.06-.41h-.23v-.29h-.23c-.02-.15-.04-.31-.06-.46h-.23v-.23h-.23v-.29h-.17c-.05-.07,0,0-.06-.06v-.41h-.29v-.29h-.17v-.23h-.06v-.06h-.17c-.02-.14-.04-.27-.06-.41h-.29v-.29h-.17v-.23h-.06v-.06h-.17c-.02-.14-.04-.27-.06-.41-.15,0-.2-.02-.29-.06v-.29h-.17v-.17h-.06v-.06h-.17c-.02-.14-.04-.27-.06-.41h-.06v-.06h-.17v-.29h-.23v-.17h-.06v-.06h-.17c-.02-.15-.04-.31-.06-.46h-.23v-.29h-.23v-.23h-.06v-.06h-.17c-.02-.14-.04-.27-.06-.41h-.23v-.29h-.23v-.29h-.17v-.17h-.12v-.23h-.23v-.29h-.17v-.06h-.06v-.41h-.29v-.23h-.23v-.29h-.17c-.02-.15-.04-.31-.06-.46-.15,0-.2-.02-.29-.06v-.23h-.23v-.29h-.17c-.02-.14-.04-.27-.06-.41h-.23v-.29h-.17c-.03-.08-.02.02-.06-.06v-.17h-.06v-.06h-.17c-.02-.15-.04-.31-.06-.46h-.23v-.29h-.23v-.17c-.06-.02-.12-.04-.17-.06-.11-.09-.11-.26-.12-.46h-.23v-.29h-.23v-.23h-.06v-.06h-.17c-.02-.14-.04-.27-.06-.41h-.23v-.29h-.23v-.29h-.17v-.17h-.12v-.23h-.23v-.29h-.17v-.23h-.06v-.06h-.17v-.17h-3.88v24.9h1.79v-21.65h.23v.29h.23v.23h.06v.06h.17c.02.14.04.27.06.41h.23v.29h.17v.06h.06v.23h.17v.17h.12v.23h.23v.29h.17v.06h.06v.23h.17v.17h.12v.23h.23v.29h.17c.02.15.04.31.06.46.15,0,.2.02.29.06v.23h.23v.29h.17c.02.14.04.27.06.41h.06v.06h.17v.17c.07.05,0,0,.06.06h.23v.29h.17c.02.15.04.31.06.46h.23v.29h.23v.23h.06v.06h.17c.02.14.04.27.06.41h.23v.29h.23c0,.22-.01.24.17.29v.17h.12v.23h.23v.29h.17v.06h.06v.23h.17v.17h.12v.23h.23v.29h.17v.06h.06v.23h.17v.17h.12v.23h.17v.06h.06v.23h.17v.23h.06v.06h.17c.02.14.04.27.06.41.07.05,0,0,.06.06h.23v.29h.17c.02.14.04.27.06.41h.06v.06h.17v.23h.29v.29h.17c.02.15.04.31.06.46h.23v.23h.29v.29h.17c.02.15.04.31.06.46h.23v.29h.23v.29h.17v.17h.12v.23h.23v.29h.17v.23h.06v.06h.17v.17h.12v.23h.23v.29h.17v.23h.06v.06h.17c.03.25.09.15.12.41h.17c.05.07,0,0,.06.06v.29h.17v.17h.06v.06h.17c.02.14.04.27.06.41.07.05,0,0,.06.06h.23v.29h.17c.02.1.04.19.06.29h.17c.02.14.04.27.06.41h.29v.29h.17c.02.1.04.19.06.29h.17c.02.14.04.27.06.41h.23v.29h.23c.02.15.04.31.06.46h.23v.23h.23v.29h.17v.06h.06c.02.14.04.27.06.41h.23v.29h.17v.06h.06v.17h3.82v-.17h.17V15.86h-1.97Z"/>
      <g>
        <path class="cls-2" d="m3.42,7.73V.18l.59-.18v7.04h1.36l-.12.68h-1.82Z"/>
        <path class="cls-2" d="m19.54,7.73V.18h2.31l.07.68h-1.8v2.7h1.51v.68h-1.51v2.81h1.9l-.07.68h-2.42Z"/>
        <path class="cls-2" d="m39.02.18l.59-.13v7.86h-.01l-2.86-6.1h.19v5.92l-.59.09V0h.21l2.86,6.06h-.39V.18Z"/>
        <path class="cls-2" d="m55.93,0h-.21l-2.17,7.73.51.18.87-3.15h1.83l.88,3.13.47-.15-2.17-7.73Zm-.82,4.07l.72-2.52.71,2.52h-1.43Z"/>
        <path class="cls-2" d="m71.86,7.81V.18l.59-.18v3.55h2.45V.18l.59-.18v7.73l-.59.09v-3.58h-2.45v3.49l-.59.09Z"/>
        <path class="cls-2" d="m93.05,7.55c-.28.2-.61.35-.92.35-1.33,0-2.49-1.71-2.49-3.95s1.16-3.95,2.49-3.95c.31,0,.64.15.92.35l.06.84c-.2-.24-.6-.51-1.02-.51-1.12,0-1.76,1.45-1.76,3.26s.64,3.28,1.76,3.28c.45,0,.82-.26,1.02-.51l-.06.84Z"/>
      </g>
      <rect class="cls-2" x="1.82" y="9.96" width="96.11" height=".46"/>
    </g>
  </g>
</svg>