<?xml version="1.0" encoding="utf-8"?>
<!-- Generator: Adobe Illustrator 20.1.0, SVG Export Plug-In . SVG Version: 6.00 Build 0)  -->
<svg version="1.1" id="_レイヤー_2" xmlns="http://www.w3.org/2000/svg" xmlns:xlink="http://www.w3.org/1999/xlink" x="0px"
	 y="0px" viewBox="0 0 64 44" style="enable-background:new 0 0 64 44;" xml:space="preserve">
<style type="text/css">
	.st0{fill:#040000;}
</style>
<g>
	<path class="st0" d="M64.1,44H-0.1V0h64.3V44z M0.2,43.7h63.6V0.3H0.2V43.7z"/>
	<path class="st0" d="M7.1,11.9v-6l0.3-0.1v5.6h0.7l-0.1,0.5H7.1z"/>
	<path class="st0" d="M16,11.9v-6h1.3l0,0.5h-1v2.1h0.8v0.5h-0.8v2.2h1.1l0,0.5L16,11.9L16,11.9z"/>
	<path class="st0" d="M26.6,5.9l0.3-0.1v6.3l0,0l-1.6-4.9h0.1v4.7L25.1,12V5.7h0.1l1.6,4.8h-0.2L26.6,5.9L26.6,5.9z"/>
	<path class="st0" d="M35.9,5.7h-0.1l-1.2,6.1l0.3,0.1l0.5-2.5h1l0.5,2.5l0.3-0.1L35.9,5.7z M35.4,9l0.4-2l0.4,2H35.4z"/>
	<path class="st0" d="M55.3,27.9V16.1l0.6-0.3v11h1.5l-0.1,1.1H55.3z"/>
	<path class="st0" d="M16.4,27.9V16.1h2.5l0.1,1.1h-1.9v4.2h1.6v1.1h-1.6v4.4h2l-0.1,1.1L16.4,27.9L16.4,27.9z"/>
	<path class="st0" d="M28.9,16.1l0.6-0.2v12.3l0,0l-3.1-9.5h0.2V28L26,28.1V15.9h0.2l3.1,9.5h-0.4L28.9,16.1L28.9,16.1z"/>
	<path class="st0" d="M47.1,15.7h-0.2l-2.3,12.1L45,28l0.9-4.9h2l0.9,4.9l0.5-0.3L47.1,15.7z M46.2,22l0.8-3.9l0.8,3.9H46.2z"/>
	<path class="st0" d="M44.6,12V5.9l0.3-0.1v2.8h1.3V5.9l0.3-0.1v6.1L46.3,12V9.1h-1.3v2.8L44.6,12z"/>
	<path class="st0" d="M56.3,11.8c-0.2,0.2-0.3,0.3-0.5,0.3c-0.7,0-1.4-1.3-1.4-3.1s0.6-3.1,1.4-3.1c0.2,0,0.4,0.1,0.5,0.3l0,0.7
		c-0.1-0.2-0.3-0.4-0.5-0.4c-0.6,0-1,1.2-1,2.6s0.4,2.6,1,2.6c0.3,0,0.4-0.2,0.5-0.4L56.3,11.8z"/>
	<rect x="6.3" y="13.2" class="st0" width="50.8" height="0.3"/>
	<rect x="6.3" y="29.9" class="st0" width="50.8" height="0.3"/>
	<path class="st0" d="M7.6,17.3h0.2c0.6,0,1.2,0.2,1.2,2.1c0,1.8-0.6,2.1-1.2,2.1H7.6V17.3z M7.6,22.7h0.1l1.4,5.2h0.6l-1.5-5.3
		c0.7-0.2,1.2-1.4,1.2-3.2c0-2.7-0.8-3.2-1.7-3.2H7.1v11.8h0.5L7.6,22.7L7.6,22.7z"/>
	<path class="st0" d="M38.1,27.9h-0.5V17.3h-1.1v-1.2h2.8v1.2h-1.2L38.1,27.9L38.1,27.9z"/>
	<path class="st0" d="M17.9,37.7v-6l0.3-0.1v5.6H19l-0.1,0.5L17.9,37.7L17.9,37.7z"/>
	<path class="st0" d="M23.2,37.7v-6l0.3-0.1v5.6h0.7l-0.1,0.5L23.2,37.7L23.2,37.7z"/>
	<path class="st0" d="M28.4,37.7v-6h1.3l0,0.5h-1v2.1h0.8V35h-0.8v2.2h1.1l0,0.5L28.4,37.7L28.4,37.7z"/>
	<path class="st0" d="M56.2,31.7l0.3-0.1v6.3l0,0L54.9,33H55v4.7l-0.3,0.1v-6.2h0.1l1.6,4.8h-0.2V31.7z"/>
	<path class="st0" d="M13.1,32.2c0.5,0,1,1.2,1,2.5c0,1.4-0.4,2.5-1,2.5s-1-1.2-1-2.5C12.1,33.4,12.6,32.2,13.1,32.2z M13.1,31.6
		c-0.7,0-1.3,1.4-1.3,3.1c0,1.8,0.6,3.1,1.3,3.1c0.7,0,1.3-1.4,1.3-3.1C14.4,33,13.8,31.6,13.1,31.6z"/>
	<path class="st0" d="M39.9,37.7l-0.4,0v-5.7H39v-0.4h1.4v0.4h-0.5L39.9,37.7L39.9,37.7z"/>
	<path class="st0" d="M45.2,37.7l-0.4,0.1v-6.1h0.4V37.7z"/>
	<path class="st0" d="M50.3,32.2c0.5,0,1,1.2,1,2.5c0,1.4-0.4,2.5-1,2.5c-0.5,0-1-1.2-1-2.5C49.3,33.4,49.7,32.2,50.3,32.2z
		 M50.3,31.6c-0.7,0-1.3,1.4-1.3,3.1c0,1.8,0.6,3.1,1.3,3.1s1.3-1.4,1.3-3.1C51.6,33,51,31.6,50.3,31.6z"/>
	<path class="st0" d="M8.7,37.6c-0.2,0.2-0.3,0.3-0.5,0.3c-0.7,0-1.4-1.3-1.4-3.1s0.6-3.1,1.4-3.1c0.2,0,0.4,0.1,0.5,0.3l0,0.7
		c-0.1-0.2-0.3-0.4-0.5-0.4c-0.6,0-1,1.2-1,2.6c0,1.4,0.4,2.6,1,2.6c0.3,0,0.4-0.2,0.5-0.4L8.7,37.6z"/>
	<path class="st0" d="M35.3,37.6c-0.2,0.2-0.3,0.3-0.5,0.3c-0.7,0-1.4-1.3-1.4-3.1s0.6-3.1,1.4-3.1c0.2,0,0.4,0.1,0.5,0.3l0,0.7
		c-0.1-0.2-0.3-0.4-0.5-0.4c-0.6,0-1,1.2-1,2.6c0,1.4,0.4,2.6,1,2.6c0.3,0,0.4-0.2,0.5-0.4L35.3,37.6z"/>
</g>
</svg>
