<?xml version="1.0" encoding="UTF-8"?>
<svg id="_レイヤー_2" data-name="レイヤー 2" xmlns="http://www.w3.org/2000/svg" viewBox="0 0 31.79 31.79">
  <defs>
    <style>
      .cls-1 {
        fill: #fff;
        stroke-width: 0px;
      }
    </style>
  </defs>
  <g id="_レイヤー_2-2" data-name="レイヤー 2">
    <g>
      <path class="cls-1" d="M24.62,0H7.17C3.21,0,0,3.21,0,7.17v17.45c0,3.96,3.21,7.17,7.17,7.17h17.45c3.96,0,7.17-3.21,7.17-7.17V7.17c0-3.96-3.21-7.17-7.17-7.17ZM24.22,19.69h0c-2.22,2.56-7.2,5.68-8.33,6.15-1.13.48-.96-.3-.92-.57.03-.16.15-.91.15-.91.04-.27.07-.69-.03-.96-.12-.3-.59-.45-.93-.52-5.09-.67-8.86-4.23-8.86-8.48,0-4.74,4.75-8.6,10.6-8.6s10.6,3.86,10.6,8.6c0,1.9-.74,3.61-2.27,5.29Z"/>
      <path class="cls-1" d="M22.96,17.13h-2.98c-.11,0-.2-.09-.2-.2h0v-4.62h0c0-.12.09-.21.2-.21h2.98c.11,0,.2.09.2.2v.75c0,.11-.09.2-.2.2h-2.02v.78h2.02c.11,0,.2.09.2.2v.75c0,.11-.09.2-.2.2h-2.02v.78h2.02c.11,0,.2.09.2.2v.75c0,.11-.09.2-.2.2"/>
      <path class="cls-1" d="M11.95,17.13c.11,0,.2-.09.2-.2v-.75c0-.11-.09-.2-.2-.2h-2.02v-3.67c0-.11-.09-.2-.2-.2h-.75c-.11,0-.2.09-.2.2v4.62h0c0,.12.09.21.2.21h2.98Z"/>
      <path class="cls-1" d="M13.74,12.1h-.75c-.11,0-.2.09-.2.2v4.63c0,.11.09.2.2.2h.75c.11,0,.2-.09.2-.2v-4.63c0-.11-.09-.2-.2-.2"/>
      <path class="cls-1" d="M18.86,12.1h-.75c-.11,0-.2.09-.2.2v2.75l-2.12-2.86s-.01-.01-.02-.02h0s0-.01-.01-.01h0s0,0-.01-.01h0s0,0-.01-.01c0,0,0,0,0,0,0,0,0,0-.01,0,0,0,0,0,0,0,0,0,0,0-.01,0,0,0,0,0,0,0,0,0,0,0-.01,0,0,0,0,0,0,0,0,0,0,0-.01,0,0,0,0,0,0,0,0,0,0,0-.01,0,0,0,0,0-.01,0,0,0,0,0,0,0h-.75c-.11,0-.2.09-.2.2v4.63c0,.11.09.2.2.2h.75c.11,0,.2-.09.2-.2v-2.75l2.12,2.86s.03.04.05.05c0,0,0,0,0,0,0,0,0,0,.01,0,0,0,0,0,0,0,0,0,0,0,0,0,0,0,0,0,0,0,0,0,0,0,0,0,0,0,0,0,.01,0,0,0,0,0,0,0,.02,0,.03,0,.05,0h.75c.11,0,.2-.09.2-.2v-4.63c0-.11-.09-.2-.2-.2"/>
    </g>
  </g>
</svg>