<?xml version="1.0" encoding="UTF-8"?>
<svg id="_レイヤー_2" data-name="レイヤー 2" xmlns="http://www.w3.org/2000/svg" viewBox="0 0 30.59 30.59">
  <defs>
    <style>
      .cls-1 {
        fill: #fff;
        stroke-width: 0px;
      }
    </style>
  </defs>
  <g id="_レイヤー_1-2" data-name="レイヤー 1">
    <g>
      <path class="cls-1" d="M15.29,2.76c4.08,0,4.57.02,6.18.09,1.49.07,2.3.32,2.84.53.71.28,1.22.61,1.76,1.14.54.54.87,1.04,1.14,1.76.21.54.46,1.35.53,2.84.07,1.61.09,2.1.09,6.18s-.02,4.57-.09,6.18c-.07,1.49-.32,2.3-.53,2.84-.28.71-.61,1.22-1.14,1.76s-1.04.87-1.76,1.14c-.54.21-1.35.46-2.84.53-1.61.07-2.1.09-6.18.09s-4.57-.02-6.18-.09c-1.49-.07-2.3-.32-2.84-.53-.71-.28-1.22-.61-1.76-1.14-.54-.54-.87-1.04-1.14-1.76-.21-.54-.46-1.35-.53-2.84-.07-1.61-.09-2.1-.09-6.18s.02-4.57.09-6.18c.07-1.49.32-2.3.53-2.84.28-.71.61-1.22,1.14-1.76s1.04-.87,1.76-1.14c.54-.21,1.35-.46,2.84-.53,1.61-.07,2.1-.09,6.18-.09M15.29,0c-4.15,0-4.67.02-6.31.09-1.63.07-2.74.33-3.71.71-1.01.39-1.86.91-2.71,1.76-.85.85-1.37,1.7-1.76,2.71-.38.97-.64,2.08-.71,3.71-.07,1.63-.09,2.15-.09,6.31s.02,4.67.09,6.31c.07,1.63.33,2.74.71,3.71.39,1.01.91,1.86,1.76,2.71.85.85,1.7,1.37,2.71,1.76.97.38,2.08.64,3.71.71,1.63.07,2.15.09,6.31.09s4.67-.02,6.31-.09c1.63-.07,2.74-.33,3.71-.71,1.01-.39,1.86-.91,2.71-1.76.85-.85,1.37-1.7,1.76-2.71.38-.97.64-2.08.71-3.71.07-1.63.09-2.15.09-6.31s-.02-4.67-.09-6.31c-.07-1.63-.33-2.74-.71-3.71-.39-1.01-.91-1.86-1.76-2.71-.85-.85-1.7-1.37-2.71-1.76-.97-.38-2.08-.64-3.71-.71-1.63-.07-2.15-.09-6.31-.09h0Z"/>
      <path class="cls-1" d="M15.29,7.44c-4.34,0-7.85,3.52-7.85,7.85s3.52,7.85,7.85,7.85,7.85-3.52,7.85-7.85-3.52-7.85-7.85-7.85ZM15.29,20.39c-2.82,0-5.1-2.28-5.1-5.1s2.28-5.1,5.1-5.1,5.1,2.28,5.1,5.1-2.28,5.1-5.1,5.1Z"/>
      <circle class="cls-1" cx="23.46" cy="7.13" r="1.84"/>
    </g>
  </g>
</svg>