<?xml version="1.0" encoding="UTF-8"?>
<svg id="_レイヤー_2" data-name="レイヤー 2" xmlns="http://www.w3.org/2000/svg" viewBox="0 0 24.53 24.53">
  <defs>
    <style>
      .cls-1 {
        fill: #231815;
        stroke-width: 0px;
      }
    </style>
  </defs>
  <g id="_レイヤー_2-2" data-name="レイヤー 2">
    <g>
      <path class="cls-1" d="M19,0H5.53C2.48,0,0,2.48,0,5.53v13.47c0,3.05,2.48,5.53,5.53,5.53h13.47c3.05,0,5.53-2.48,5.53-5.53V5.53c0-3.05-2.48-5.53-5.53-5.53ZM18.69,15.2h0c-1.72,1.98-5.55,4.38-6.43,4.75-.87.37-.74-.23-.71-.44.02-.12.12-.7.12-.7.03-.21.06-.53-.03-.74-.09-.23-.45-.35-.72-.4-3.93-.52-6.84-3.27-6.84-6.55,0-3.66,3.67-6.64,8.18-6.64s8.18,2.98,8.18,6.64c0,1.46-.57,2.78-1.75,4.08Z"/>
      <path class="cls-1" d="M17.72,13.22h-2.3c-.09,0-.16-.07-.16-.16h0v-3.57h0c0-.09.07-.16.16-.16h2.3c.09,0,.16.07.16.16v.58c0,.09-.07.16-.16.16h-1.56v.6h1.56c.09,0,.16.07.16.16v.58c0,.09-.07.16-.16.16h-1.56v.6h1.56c.09,0,.16.07.16.16v.58c0,.09-.07.16-.16.16"/>
      <path class="cls-1" d="M9.22,13.22c.09,0,.16-.07.16-.16v-.58c0-.09-.07-.16-.16-.16h-1.56v-2.83c0-.09-.07-.16-.16-.16h-.58c-.09,0-.16.07-.16.16v3.57h0c0,.09.07.16.16.16h2.3Z"/>
      <path class="cls-1" d="M10.61,9.34h-.58c-.09,0-.16.07-.16.16v3.57c0,.09.07.16.16.16h.58c.09,0,.16-.07.16-.16v-3.57c0-.09-.07-.16-.16-.16"/>
      <path class="cls-1" d="M14.55,9.34h-.58c-.09,0-.16.07-.16.16v2.12l-1.63-2.21s0-.01-.01-.02c0,0,0,0,0,0,0,0,0,0,0,0h0s0,0,0,0h0s0,0,0,0c0,0,0,0,0,0,0,0,0,0,0,0,0,0,0,0,0,0,0,0,0,0,0,0,0,0,0,0,0,0,0,0,0,0,0,0,0,0,0,0,0,0,0,0,0,0,0,0,0,0,0,0,0,0,0,0,0,0,0,0,0,0,0,0,0,0,0,0,0,0,0,0h-.58c-.09,0-.16.07-.16.16v3.57c0,.09.07.16.16.16h.58c.09,0,.16-.07.16-.16v-2.12l1.64,2.21s.03.03.04.04c0,0,0,0,0,0,0,0,0,0,0,0,0,0,0,0,0,0,0,0,0,0,0,0,0,0,0,0,0,0,0,0,0,0,0,0,0,0,0,0,.01,0,0,0,0,0,0,0,.01,0,.03,0,.04,0h.58c.09,0,.16-.07.16-.16v-3.57c0-.09-.07-.16-.16-.16"/>
    </g>
  </g>
</svg>