<?xml version="1.0" encoding="UTF-8"?>
<svg id="_レイヤー_2" data-name="レイヤー 2" xmlns="http://www.w3.org/2000/svg" viewBox="0 0 24.77 24.77">
  <defs>
    <style>
      .cls-1 {
        fill: #231815;
        stroke-width: 0px;
      }
    </style>
  </defs>
  <g id="_レイヤー_2-2" data-name="レイヤー 2">
    <g>
      <path class="cls-1" d="M12.39,2.23c3.31,0,3.7.01,5.01.07,1.21.06,1.86.26,2.3.43.58.22.99.49,1.42.93.43.43.7.85.93,1.42.17.44.37,1.09.43,2.3.06,1.31.07,1.7.07,5.01s-.01,3.7-.07,5.01c-.06,1.21-.26,1.86-.43,2.3-.22.58-.49.99-.93,1.42s-.85.7-1.42.93c-.44.17-1.09.37-2.3.43-1.31.06-1.7.07-5.01.07s-3.7-.01-5.01-.07c-1.21-.06-1.86-.26-2.3-.43-.58-.22-.99-.49-1.42-.93-.43-.43-.7-.85-.93-1.42-.17-.44-.37-1.09-.43-2.3-.06-1.31-.07-1.7-.07-5.01s.01-3.7.07-5.01c.06-1.21.26-1.86.43-2.3.22-.58.49-.99.93-1.42s.85-.7,1.42-.93c.44-.17,1.09-.37,2.3-.43,1.31-.06,1.7-.07,5.01-.07M12.39,0c-3.36,0-3.79.01-5.11.07-1.32.06-2.22.27-3.01.58-.81.32-1.51.74-2.19,1.43-.69.69-1.11,1.38-1.43,2.19-.31.79-.52,1.69-.58,3.01-.06,1.32-.07,1.74-.07,5.11s.01,3.79.07,5.11c.06,1.32.27,2.22.58,3.01.32.81.74,1.51,1.43,2.19.69.69,1.38,1.11,2.19,1.43.79.31,1.69.52,3.01.58,1.32.06,1.74.07,5.11.07s3.79-.01,5.11-.07c1.32-.06,2.22-.27,3.01-.58.81-.32,1.51-.74,2.19-1.43.69-.69,1.11-1.38,1.43-2.19.31-.79.52-1.69.58-3.01.06-1.32.07-1.74.07-5.11s-.01-3.79-.07-5.11c-.06-1.32-.27-2.22-.58-3.01-.32-.81-.74-1.51-1.43-2.19-.69-.69-1.38-1.11-2.19-1.43-.79-.31-1.69-.52-3.01-.58-1.32-.06-1.74-.07-5.11-.07h0Z"/>
      <path class="cls-1" d="M12.39,6.03c-3.51,0-6.36,2.85-6.36,6.36s2.85,6.36,6.36,6.36,6.36-2.85,6.36-6.36-2.85-6.36-6.36-6.36ZM12.39,16.52c-2.28,0-4.13-1.85-4.13-4.13s1.85-4.13,4.13-4.13,4.13,1.85,4.13,4.13-1.85,4.13-4.13,4.13Z"/>
      <circle class="cls-1" cx="19" cy="5.77" r="1.49"/>
    </g>
  </g>
</svg>