<?xml version="1.0" encoding="UTF-8"?>
<svg id="_レイヤー_2" data-name="レイヤー 2" xmlns="http://www.w3.org/2000/svg" viewBox="0 0 95.34 30.34">
  <defs>
    <style>
      .cls-1 {
        fill: #fff;
        stroke-width: 0px;
      }
    </style>
  </defs>
  <g id="_レイヤー_2-2" data-name="レイヤー 2">
    <g>
      <path class="cls-1" d="M90.93,13.48v.43h1.39c1.29,0,1.4.2.96,1.76-.21.72-1.06,3.41-1.96,6.13-.59-1.58-2.43-6.32-2.64-6.87-.39-.99-.4-1.03.21-1.03h.48v-.43h-5.95v.43h.6c1.06,0,1.07.04,1.81,1.94.58,1.49,3.45,8.53,4.11,10.28-1.2,3.27-1.79,3.75-2.61,3.75-.58,0-.89-.47-.66-.74.23-.25.5-.59.41-1.06-.1-.51-.61-.92-1.19-.77-.63.16-.89.79-.73,1.48.17.73.93,1.53,2.14,1.53s1.92-.76,3-3.76c.85-2.37,3.28-9.86,3.57-10.7.61-1.76.51-1.96,1.46-1.96v-.43h-4.42Z"/>
      <path class="cls-1" d="M51.62,25.52c-1.08.34-2.25-.1-2.37-1.65-.1-1.26-.15-2.41.98-2.9.97-.43,2.06-.28,2.69-.05v3.14c0,.15,0,.4.03.65-.3.35-.84.66-1.32.82M57.26,24.81c-.69.72-1.11.86-1.49.45-.21-.23-.23-.58-.23-2.11v-7.19c0-2.49-3.31-3.08-5.01-2.9-1.69.18-3.08.92-3.46,2.35-.19.73.07,1.59.84,1.65.73.05,1.55-.63,1.01-1.42-.38-.55-.41-.93-.13-1.32.33-.46,1.28-.9,2.42-.78,1.31.15,1.69,1.01,1.69,2.23v4.71c-1.08-.34-3.35-.5-5.02.34-1.71.86-1.82,2.75-1.32,3.96.63,1.52,2.34,1.93,4.18,1.48,1.11-.28,1.92-.82,2.32-1.17.19.56.58,1.06,1.32,1.21,1.1.21,2.06-.2,3.02-1.21l.06-.07-.22-.22Z"/>
      <path class="cls-1" d="M81.67,24.25c-.63.84-1.42,1.33-1.98,1.37-.66.04-1.1-.26-1.1-1.49v-10.21h1.89v-.43h-1.89s0-2.61,0-3.12c0-.35-.57-.43-.7-.02-.41,1.34-1.51,3.14-3.56,3.14h-.35v.43h1.72v9.07c0,2.33.98,3.25,2.83,3.25,1.72,0,2.61-.67,3.45-1.75l-.3-.25Z"/>
      <path class="cls-1" d="M70.71,25.83c-.56,0-.51-.21-.51-2.46v-8.53c0-.98-.24-1.35-1.16-1.35h-3.35v.43c1.69,0,1.66-.08,1.66,1.31v7.03c0,.45-.03.93-.15,1.34l-.03.08c-.47,1.37-1.49,2.05-2.32,2.05-.99,0-1.38-.4-1.38-1.91v-9.08c0-.89-.21-1.25-1.32-1.25h-3.21v.43c1.8,0,1.67-.03,1.67,1.38v7.05c0,2.75,1.48,3.9,3.82,3.9,1.4,0,2.34-.75,2.92-1.96v.39c0,1.27.2,1.56,1.32,1.56h2.98v-.41h-.95Z"/>
      <path class="cls-1" d="M36.66,16.11c0-1.57.5-2.55,1.87-2.55,1.5,0,1.87,1.18,1.87,2.55v.53c0,.91-.03.92-1.06.92h-1.96c-.6,0-.72-.05-.72-.91v-.53ZM42.59,23.96c-1.09,1.3-2.36,1.79-3.74,1.79-1.3,0-2.2-.59-2.2-2.97v-3.98c0-.69.15-.72.9-.72h4.13c1.27,0,1.53-.09,1.53-1.22,0-2.69-2.48-3.78-4.7-3.78-3,0-5.1,1.73-5.1,5.35v2.34c0,3.69,1.88,5.59,5.33,5.59,1.73,0,3.25-.83,4.13-2.14l-.3-.25Z"/>
      <g>
        <path class="cls-1" d="M20.54,0h-10.84C4.34,0,0,4.34,0,9.71v10.84c0,5.36,4.34,9.71,9.7,9.71h10.84c5.36,0,9.71-4.35,9.71-9.71v-10.84c0-5.36-4.35-9.71-9.71-9.71ZM22.81,21.52c-.8,3.81-4.07,5.36-8.1,5.06-1.41-.1-2.76-.66-3.69-1.42-.3.15-.65.34-1.31.39-2.05.13-3.3-1.26-2.79-2.43.44-.99,1.52-1.04,2.2-.82.53.17,1.03.55,1.51.94.58-.93.33-2.22.12-3.95-.54-4.31-.27-7.54.76-10.57.34.56.86,1.44.86,1.44,0,0,.67-.42,1.59-.89-1.41,3.52-1.45,6.55-1.23,8.9.22,2.34.54,4.88-.8,6.19,1.03,1.04,2.18,1.6,3.17,1.7,2.88.28,4.32-1.32,4.7-4.91.07-.64.11-1.33.08-2.23-.11-2.27-.92-3.74-1.53-4.24-.52.18-1.04.27-1.63.27-1.05,0-1.97-.2-1.91-1.05.05-.64.84-1.12,2.29-.69.22.07.43.14.63.22h0l.42.19c.35-.28,1.05-.99,1.21-2.85.02-.21.03-.79.03-.79,0-3.84-1.75-5.53-4.43-5.53-1.29,0-2.86.77-3.75,1.58-.8.71-1.49,1.61-2.16,2.67-.12-.78-.23-1.79-.23-1.79,0,0-.79-.16-1.44-.33.82-.71,1.41-1.15,2.37-1.65,1.73-.92,3.96-1.31,5.29-1.29,5.09.1,6.9,3.53,6.88,6.09,0,.31,0,.53-.05.86-.22,1.78-1.29,3-2.6,3.63,2.26,1.08,3.46,2.79,3.67,4.83.07.69.03,1.64-.14,2.46Z"/>
        <path class="cls-1" d="M7.29,23.48c-.16.44.4,1.1,1.32,1.12.42,0,.76-.13,1.13-.39-.34-.32-.57-.53-1-.76-.83-.46-1.31-.33-1.45.03Z"/>
      </g>
      <polygon class="cls-1" points="44.41 7.48 44.39 7.56 44.3 7.61 44.13 7.64 43.88 7.65 43.61 7.64 43.45 7.61 43.36 7.56 43.33 7.48 43.33 5.33 41.34 5.33 41.34 7.48 41.32 7.56 41.23 7.61 41.07 7.64 40.8 7.65 40.55 7.64 40.38 7.61 40.29 7.56 40.26 7.48 40.26 2.47 40.29 2.39 40.38 2.33 40.55 2.3 40.8 2.29 41.07 2.3 41.23 2.33 41.32 2.39 41.34 2.47 41.34 4.42 43.33 4.42 43.33 2.47 43.36 2.39 43.45 2.33 43.61 2.3 43.88 2.29 44.13 2.3 44.3 2.33 44.39 2.39 44.41 2.47 44.41 7.48"/>
      <path class="cls-1" d="M50.52,4.91c0,.44-.05.83-.17,1.18-.11.35-.27.64-.49.88-.21.24-.49.43-.8.56-.32.13-.69.19-1.11.19s-.77-.05-1.08-.16c-.3-.11-.56-.27-.77-.49-.21-.22-.36-.51-.46-.85-.1-.34-.16-.75-.16-1.22,0-.43.06-.81.16-1.16.11-.35.28-.64.49-.88.21-.24.49-.43.81-.56.32-.13.69-.19,1.11-.19s.76.05,1.07.16c.31.11.56.27.78.49.2.23.36.5.47.84.1.34.16.74.16,1.2M49.39,4.97c0-.28-.02-.53-.06-.76-.05-.23-.12-.42-.22-.58-.11-.17-.25-.29-.42-.38-.18-.09-.4-.13-.66-.13s-.49.05-.67.15c-.18.1-.32.23-.43.4-.1.16-.18.36-.23.58-.05.22-.07.46-.07.71,0,.29.02.55.07.78.04.23.12.43.22.59.1.16.24.29.42.38.17.09.4.13.66.13s.49-.05.67-.15c.18-.1.32-.23.43-.4.11-.17.19-.37.24-.6.04-.22.06-.47.06-.72"/>
      <polygon class="cls-1" points="55.09 2.76 55.09 2.96 55.06 3.1 55 3.17 54.94 3.2 53.61 3.2 53.61 7.48 53.58 7.56 53.49 7.61 53.32 7.64 53.06 7.65 52.8 7.64 52.64 7.61 52.55 7.56 52.52 7.48 52.52 3.2 51.19 3.2 51.12 3.17 51.07 3.1 51.04 2.96 51.03 2.76 51.04 2.54 51.07 2.41 51.12 2.33 51.19 2.31 54.94 2.31 55 2.33 55.06 2.41 55.09 2.54 55.09 2.76"/>
      <path class="cls-1" d="M60.93,3.93c0,.3-.05.56-.13.79-.09.24-.23.43-.4.59-.18.16-.4.27-.66.36-.26.08-.57.13-.92.13h-.44v1.7l-.03.08-.09.05-.17.03h-.26s-.27,0-.27,0l-.17-.03-.09-.05-.02-.08V2.69l.1-.28.27-.1h1.61c.11.02.25.04.41.08.16.03.32.09.48.17.16.09.31.2.42.33.11.13.2.28.26.46.06.17.09.37.09.59M59.8,4.01c0-.19-.03-.34-.1-.46l-.24-.27-.3-.11-.33-.03h-.46v1.81h.49c.17,0,.32-.03.43-.07l.29-.19.17-.3.06-.38Z"/>
      <polygon class="cls-1" points="65.01 7.21 65 7.4 64.96 7.54 64.91 7.61 64.85 7.63 62.18 7.63 61.95 7.55 61.85 7.29 61.85 2.65 61.95 2.39 62.18 2.31 64.83 2.31 64.9 2.33 64.94 2.41 64.98 2.54 64.99 2.74 64.98 2.94 64.94 3.07 64.9 3.13 64.83 3.16 62.93 3.16 62.93 4.46 64.54 4.46 64.61 4.48 64.66 4.55 64.69 4.68 64.7 4.87 64.69 5.07 64.66 5.2 64.61 5.26 64.54 5.29 62.93 5.29 62.93 6.78 64.85 6.78 64.91 6.81 64.96 6.88 65 7.01 65.01 7.21"/>
      <path class="cls-1" d="M69.94,3.93c0,.3-.05.56-.15.79-.09.24-.23.43-.4.59-.18.16-.4.27-.66.36-.26.08-.56.13-.92.13h-.44v1.7l-.03.08-.09.05-.16.03h-.27s-.26,0-.26,0l-.17-.03-.09-.05-.03-.08V2.69l.11-.28.26-.1h1.61c.11.02.25.04.41.08.16.03.32.09.48.17.17.09.31.2.42.33.12.13.2.28.26.46.06.17.1.37.1.59M68.8,4.01c0-.19-.03-.34-.1-.46l-.24-.27-.3-.11-.33-.03h-.46v1.81h.48c.18,0,.32-.03.44-.07l.29-.19.17-.3.05-.38Z"/>
      <path class="cls-1" d="M74.42,3.93c0,.3-.05.56-.14.79-.09.24-.23.43-.41.59-.18.16-.4.27-.65.36-.26.08-.57.13-.92.13h-.45v1.7l-.03.08-.09.05-.17.03h-.26s-.26,0-.26,0l-.16-.03-.09-.05-.03-.08V2.69l.1-.28.26-.1h1.62c.11.02.25.04.41.08.16.03.32.09.48.17.16.09.3.2.42.33.11.13.2.28.26.46.06.17.09.37.09.59M73.29,4.01c0-.19-.03-.34-.1-.46l-.24-.27-.3-.11-.32-.03h-.46v1.81h.49c.17,0,.31-.03.43-.07l.29-.19.16-.3.06-.38Z"/>
      <polygon class="cls-1" points="78.45 7.21 78.44 7.4 78.41 7.54 78.35 7.61 78.29 7.63 75.62 7.63 75.39 7.55 75.3 7.29 75.3 2.65 75.39 2.39 75.62 2.31 78.27 2.31 78.34 2.33 78.38 2.41 78.41 2.54 78.43 2.74 78.41 2.94 78.38 3.07 78.34 3.13 78.27 3.16 76.37 3.16 76.37 4.46 77.98 4.46 78.04 4.48 78.09 4.55 78.13 4.68 78.14 4.87 78.13 5.07 78.09 5.2 78.04 5.26 77.98 5.29 76.37 5.29 76.37 6.78 78.29 6.78 78.35 6.81 78.41 6.88 78.44 7.01 78.45 7.21"/>
      <path class="cls-1" d="M83.56,7.49l-.02.07-.08.05-.18.03h-.32s-.27,0-.27,0l-.16-.03-.09-.05-.04-.08-.48-1.19-.17-.36-.18-.27-.24-.16-.3-.05h-.34v2.03l-.03.08-.09.05-.16.03h-.26s-.26,0-.26,0l-.16-.03-.09-.05-.02-.08V2.65l.09-.26.23-.08h1.72s.24.03.24.03c.22.03.41.08.58.16.17.07.32.17.43.29.13.12.22.26.27.42.07.16.1.36.1.56,0,.18-.02.35-.07.49l-.2.39-.32.3c-.13.08-.28.15-.44.2l.22.14.2.2.18.27.16.34.44,1.05.09.23.02.11ZM82.16,3.88c0-.17-.04-.32-.11-.44-.08-.13-.21-.21-.39-.26l-.19-.03h-.29s-.48-.01-.48-.01v1.51h.55l.4-.06.28-.16.17-.24.06-.31Z"/>
    </g>
  </g>
</svg>