<?xml version="1.0" encoding="UTF-8"?>
<svg id="_レイヤー_2" data-name="レイヤー 2" xmlns="http://www.w3.org/2000/svg" viewBox="0 0 307.3 102.05">
  <defs>
    <style>
      .cls-1 {
        fill: #231815;
        stroke-width: 0px;
      }
    </style>
  </defs>
  <g id="_レイヤー_1-2" data-name="レイヤー 1">
    <g>
      <path class="cls-1" d="M19.24,65.78c-10.31,0-18.69-8.38-18.69-18.69v-24.21c0-1.43,1.16-2.59,2.59-2.59s2.59,1.16,2.59,2.59v24.21c0,7.45,6.06,13.51,13.51,13.51s13.51-6.06,13.51-13.51v-24.21c0-1.43,1.16-2.59,2.59-2.59s2.59,1.16,2.59,2.59v24.21c0,10.31-8.38,18.69-18.69,18.69Z"/>
      <path class="cls-1" d="M92.66,65.78c-1.43,0-2.59-1.16-2.59-2.59v-24.21c0-7.45-6.06-13.51-13.51-13.51s-13.51,6.06-13.51,13.51v24.21c0,1.43-1.16,2.59-2.59,2.59s-2.59-1.16-2.59-2.59v-24.21c0-10.31,8.38-18.69,18.69-18.69s18.69,8.38,18.69,18.69v24.21c0,1.43-1.16,2.59-2.59,2.59Z"/>
      <path class="cls-1" d="M130.75,26.38h-14.79c-1.43,0-2.59-1.16-2.59-2.59s1.16-2.59,2.59-2.59h14.79c1.43,0,2.59,1.16,2.59,2.59s-1.16,2.59-2.59,2.59Z"/>
      <path class="cls-1" d="M123.16,66.17c-1.43,0-2.59-1.16-2.59-2.59V2.59c0-1.43,1.16-2.59,2.59-2.59s2.59,1.16,2.59,2.59v60.99c0,1.43-1.16,2.59-2.59,2.59Z"/>
      <path class="cls-1" d="M159.93,66.04c-1.43,0-2.59-1.16-2.59-2.59V26.52h-4.48c-1.43,0-2.59-1.16-2.59-2.59s1.16-2.59,2.59-2.59h7.07c1.43,0,2.59,1.16,2.59,2.59v39.53c0,1.43-1.16,2.59-2.59,2.59Z"/>
      <path class="cls-1" d="M212.74,65.91c-1.43,0-2.59-1.16-2.59-2.59v-26.11c0-6.26-5.09-11.35-11.35-11.35s-11.35,5.09-11.35,11.35v26.11c0,1.43-1.16,2.59-2.59,2.59s-2.59-1.16-2.59-2.59v-26.11c0-9.11,7.41-16.53,16.53-16.53s16.53,7.41,16.53,16.53v26.11c0,1.43-1.16,2.59-2.59,2.59Z"/>
      <path class="cls-1" d="M240.75,65.91c-1.43,0-2.59-1.16-2.59-2.59v-26.11c0-6.26-5.09-11.35-11.35-11.35s-11.35,5.09-11.35,11.35v26.11c0,1.43-1.16,2.59-2.59,2.59s-2.59-1.16-2.59-2.59v-26.11c0-9.11,7.41-16.53,16.53-16.53s16.53,7.41,16.53,16.53v26.11c0,1.43-1.16,2.59-2.59,2.59Z"/>
      <path class="cls-1" d="M287.28,66.04h-.04c-17.02,0-22.09-13.17-22.29-13.73-2.83-8.49-2.68-15.74.42-21.62,4.16-7.87,12.09-10.21,12.42-10.3,16.52-5.35,25.65,6.95,28.16,14.21.23.66.18,1.38-.13,2.01s-.87,1.1-1.53,1.31l-34.95,11.07c.15.53.32,1.07.5,1.61.13.33,4.09,10.27,17.43,10.27.38,0,9.22-.23,15.05-13.13.59-1.31,2.12-1.89,3.43-1.3,1.3.59,1.88,2.12,1.3,3.43-7.16,15.87-18.89,16.18-19.77,16.18ZM285.49,24.29c-1.86,0-3.92.32-6.18,1.05-.14.04-6.29,1.91-9.38,7.82-1.58,3.02-2.13,6.61-1.64,10.71l31.66-10.03c-1.88-3.51-6.31-9.56-14.46-9.56Z"/>
      <rect class="cls-1" x="156.07" y="5.54" width="8.25" height="8.25" rx="4.12" ry="4.12"/>
      <path class="cls-1" d="M306.52,80.33H.79c-.43,0-.79-.35-.79-.79s.35-.79.79-.79h305.73c.43,0,.79.35.79.79s-.35.79-.79.79Z"/>
      <g>
        <path class="cls-1" d="M78.98,88.58v6.35c.69-.72,1.47-1.07,2.35-1.07,1.01,0,1.85.38,2.52,1.13.67.75,1,1.68,1,2.79s-.34,2.1-1.01,2.85c-.67.75-1.52,1.12-2.54,1.12-.86,0-1.64-.33-2.32-1v.78h-1.73v-12.95h1.73ZM83.09,97.86c0-.72-.19-1.3-.58-1.75-.39-.46-.89-.69-1.48-.69-.63,0-1.15.22-1.55.67-.39.44-.59,1.01-.59,1.72s.19,1.31.58,1.74c.39.44.9.67,1.53.67.6,0,1.09-.22,1.49-.67.4-.45.6-1.01.6-1.69Z"/>
        <path class="cls-1" d="M96.31,98.21h-5.35c.05.61.25,1.1.6,1.46.35.36.81.54,1.36.54.43,0,.79-.1,1.07-.31.28-.2.59-.58.94-1.14l1.46.81c-.23.38-.46.71-.71.99-.25.27-.52.5-.81.67-.29.18-.6.31-.93.39-.33.08-.69.12-1.08.12-1.11,0-2.01-.36-2.68-1.07-.67-.72-1.01-1.68-1.01-2.87s.33-2.14.98-2.87c.66-.72,1.53-1.08,2.62-1.08s1.97.35,2.61,1.05c.63.7.95,1.66.95,2.89v.41ZM94.53,96.8c-.24-.92-.82-1.38-1.74-1.38-.21,0-.41.03-.59.1-.18.06-.35.16-.5.28-.15.12-.28.26-.39.43-.11.17-.19.36-.25.58h3.47Z"/>
        <path class="cls-1" d="M102.74,88.58v12.95h-1.73v-12.95h1.73Z"/>
        <path class="cls-1" d="M107.4,97.75c0-1.08.39-2,1.16-2.75.77-.76,1.71-1.13,2.82-1.13s2.06.38,2.84,1.14c.77.76,1.15,1.7,1.15,2.81s-.39,2.06-1.16,2.81c-.78.75-1.73,1.13-2.86,1.13s-2.06-.38-2.81-1.15c-.76-.76-1.13-1.71-1.13-2.85ZM109.17,97.78c0,.75.2,1.34.6,1.77.41.44.95.66,1.62.66s1.21-.22,1.62-.65c.4-.43.61-1.01.61-1.74s-.2-1.31-.61-1.74c-.41-.44-.95-.66-1.62-.66s-1.19.22-1.6.66c-.41.44-.61,1.01-.61,1.7Z"/>
        <path class="cls-1" d="M120.95,94.07l1.93,4.19,1.92-4.19h1.94l-3.88,7.98-3.85-7.98h1.93Z"/>
        <path class="cls-1" d="M137.54,98.21h-5.35c.05.61.25,1.1.6,1.46.35.36.81.54,1.36.54.43,0,.79-.1,1.07-.31.28-.2.59-.58.94-1.14l1.46.81c-.23.38-.46.71-.71.99-.25.27-.52.5-.81.67-.29.18-.6.31-.93.39-.33.08-.69.12-1.08.12-1.11,0-2.01-.36-2.68-1.07-.67-.72-1.01-1.68-1.01-2.87s.33-2.14.98-2.87c.66-.72,1.53-1.08,2.62-1.08s1.97.35,2.61,1.05c.63.7.95,1.66.95,2.89v.41ZM135.77,96.8c-.24-.92-.82-1.38-1.74-1.38-.21,0-.41.03-.59.1-.18.06-.35.16-.5.28-.15.12-.28.26-.39.43-.11.17-.19.36-.25.58h3.47Z"/>
        <path class="cls-1" d="M147.76,88.58h1.73v12.95h-1.73v-.78c-.68.66-1.45,1-2.31,1-1.02,0-1.87-.37-2.55-1.12-.67-.76-1-1.71-1-2.85s.33-2.04,1-2.79c.66-.75,1.5-1.13,2.51-1.13.87,0,1.66.36,2.35,1.07v-6.35ZM143.67,97.78c0,.72.19,1.3.58,1.75.39.46.89.68,1.49.68.64,0,1.16-.22,1.55-.66.39-.45.59-1.03.59-1.73s-.2-1.28-.59-1.73c-.39-.44-.9-.67-1.53-.67-.59,0-1.09.23-1.49.67-.39.46-.59,1.02-.59,1.69Z"/>
        <path class="cls-1" d="M163.9,88.58v6.35c.69-.72,1.47-1.07,2.35-1.07,1.01,0,1.85.38,2.52,1.13.67.75,1,1.68,1,2.79s-.34,2.1-1.01,2.85c-.67.75-1.52,1.12-2.54,1.12-.86,0-1.64-.33-2.32-1v.78h-1.73v-12.95h1.73ZM168,97.86c0-.72-.19-1.3-.58-1.75-.39-.46-.89-.69-1.48-.69-.63,0-1.15.22-1.55.67-.39.44-.59,1.01-.59,1.72s.19,1.31.58,1.74c.39.44.9.67,1.53.67.6,0,1.09-.22,1.49-.67.4-.45.6-1.01.6-1.69Z"/>
        <path class="cls-1" d="M181.22,98.21h-5.35c.05.61.25,1.1.6,1.46.35.36.81.54,1.36.54.43,0,.79-.1,1.07-.31.28-.2.59-.58.94-1.14l1.46.81c-.23.38-.46.71-.71.99-.25.27-.52.5-.81.67-.29.18-.6.31-.93.39-.33.08-.69.12-1.08.12-1.11,0-2.01-.36-2.68-1.07-.67-.72-1.01-1.68-1.01-2.87s.33-2.14.98-2.87c.66-.72,1.53-1.08,2.62-1.08s1.97.35,2.61,1.05c.63.7.95,1.66.95,2.89v.41ZM179.45,96.8c-.24-.92-.82-1.38-1.74-1.38-.21,0-.41.03-.59.1-.18.06-.35.16-.5.28-.15.12-.28.26-.39.43-.11.17-.19.36-.25.58h3.47Z"/>
        <path class="cls-1" d="M193.61,88.58h1.73v6.1c.61-.55,1.29-.83,2.03-.83.84,0,1.52.27,2.02.82.43.48.64,1.23.64,2.28v4.58h-1.73v-4.42c0-.6-.11-1.03-.32-1.3-.21-.27-.55-.4-1.02-.4-.6,0-1.03.19-1.27.56-.24.38-.36,1.03-.36,1.95v3.61h-1.73v-12.95Z"/>
        <path class="cls-1" d="M210.55,94.07h1.73v7.47h-1.73v-.78c-.71.66-1.48,1-2.29,1-1.03,0-1.89-.37-2.56-1.12-.67-.76-1-1.71-1-2.85s.33-2.05,1-2.8,1.51-1.12,2.52-1.12c.87,0,1.65.36,2.34,1.07v-.87ZM206.46,97.78c0,.72.19,1.3.58,1.75.39.46.89.68,1.49.68.64,0,1.16-.22,1.55-.66.39-.45.59-1.03.59-1.73s-.2-1.28-.59-1.73c-.39-.44-.9-.67-1.53-.67-.59,0-1.09.23-1.49.67-.39.46-.59,1.02-.59,1.69Z"/>
        <path class="cls-1" d="M217.03,90.96c0-.3.11-.56.33-.78s.48-.33.79-.33.58.11.8.33c.22.21.33.48.33.79s-.11.58-.33.8c-.21.22-.48.33-.79.33s-.58-.11-.8-.33c-.22-.22-.33-.49-.33-.81ZM219.02,94.07v7.47h-1.73v-7.47h1.73Z"/>
        <path class="cls-1" d="M224.03,94.07h1.73v.67c.32-.33.6-.56.84-.68.25-.13.55-.19.89-.19.46,0,.93.15,1.43.44l-.79,1.58c-.33-.23-.65-.35-.96-.35-.94,0-1.41.71-1.41,2.13v3.87h-1.73v-7.47Z"/>
      </g>
      <circle class="cls-1" cx="63.87" cy="98.39" r="2.09"/>
      <circle class="cls-1" cx="240.56" cy="98.39" r="2.09"/>
    </g>
  </g>
</svg>