<?xml version="1.0" encoding="UTF-8"?>
<svg id="_レイヤー_2" data-name="レイヤー 2" xmlns="http://www.w3.org/2000/svg" viewBox="0 0 307.3 106.07">
  <defs>
    <style>
      .cls-1 {
        font-family: Futura-Medium, Futura;
        font-size: 15.71px;
        font-weight: 500;
        letter-spacing: .18em;
      }

      .cls-1, .cls-2 {
        fill: #fff;
      }

      .cls-2 {
        stroke-width: 0px;
      }
    </style>
  </defs>
  <g id="_レイヤー_1-2" data-name="レイヤー 1">
    <g>
      <path class="cls-2" d="M19.24,65.78c-10.31,0-18.69-8.38-18.69-18.69v-24.21c0-1.43,1.16-2.59,2.59-2.59s2.59,1.16,2.59,2.59v24.21c0,7.45,6.06,13.51,13.51,13.51s13.51-6.06,13.51-13.51v-24.21c0-1.43,1.16-2.59,2.59-2.59s2.59,1.16,2.59,2.59v24.21c0,10.31-8.38,18.69-18.69,18.69Z"/>
      <path class="cls-2" d="M92.66,65.78c-1.43,0-2.59-1.16-2.59-2.59v-24.21c0-7.45-6.06-13.51-13.51-13.51s-13.51,6.06-13.51,13.51v24.21c0,1.43-1.16,2.59-2.59,2.59s-2.59-1.16-2.59-2.59v-24.21c0-10.31,8.38-18.69,18.69-18.69s18.69,8.38,18.69,18.69v24.21c0,1.43-1.16,2.59-2.59,2.59Z"/>
      <path class="cls-2" d="M130.75,26.38h-14.79c-1.43,0-2.59-1.16-2.59-2.59s1.16-2.59,2.59-2.59h14.79c1.43,0,2.59,1.16,2.59,2.59s-1.16,2.59-2.59,2.59Z"/>
      <path class="cls-2" d="M123.16,66.17c-1.43,0-2.59-1.16-2.59-2.59V2.59c0-1.43,1.16-2.59,2.59-2.59s2.59,1.16,2.59,2.59v60.99c0,1.43-1.16,2.59-2.59,2.59Z"/>
      <path class="cls-2" d="M159.93,66.04c-1.43,0-2.59-1.16-2.59-2.59V26.52h-4.48c-1.43,0-2.59-1.16-2.59-2.59s1.16-2.59,2.59-2.59h7.07c1.43,0,2.59,1.16,2.59,2.59v39.53c0,1.43-1.16,2.59-2.59,2.59Z"/>
      <path class="cls-2" d="M212.74,65.91c-1.43,0-2.59-1.16-2.59-2.59v-26.11c0-6.26-5.09-11.35-11.35-11.35s-11.35,5.09-11.35,11.35v26.11c0,1.43-1.16,2.59-2.59,2.59s-2.59-1.16-2.59-2.59v-26.11c0-9.11,7.41-16.53,16.53-16.53s16.53,7.41,16.53,16.53v26.11c0,1.43-1.16,2.59-2.59,2.59Z"/>
      <path class="cls-2" d="M240.75,65.91c-1.43,0-2.59-1.16-2.59-2.59v-26.11c0-6.26-5.09-11.35-11.35-11.35s-11.35,5.09-11.35,11.35v26.11c0,1.43-1.16,2.59-2.59,2.59s-2.59-1.16-2.59-2.59v-26.11c0-9.11,7.41-16.53,16.53-16.53s16.53,7.41,16.53,16.53v26.11c0,1.43-1.16,2.59-2.59,2.59Z"/>
      <path class="cls-2" d="M287.28,66.04h-.04c-17.02,0-22.09-13.17-22.29-13.73-2.83-8.49-2.68-15.74.42-21.62,4.16-7.87,12.09-10.21,12.42-10.3,16.52-5.35,25.65,6.95,28.16,14.21.23.66.18,1.38-.13,2.01s-.87,1.1-1.53,1.31l-34.95,11.07c.15.53.32,1.07.5,1.61.13.33,4.09,10.27,17.43,10.27.38,0,9.22-.23,15.05-13.13.59-1.31,2.12-1.89,3.43-1.3,1.3.59,1.88,2.12,1.3,3.43-7.16,15.87-18.89,16.18-19.77,16.18ZM285.49,24.29c-1.86,0-3.92.32-6.18,1.05-.14.04-6.29,1.91-9.38,7.82-1.58,3.02-2.13,6.61-1.64,10.71l31.66-10.03c-1.88-3.51-6.31-9.56-14.46-9.56Z"/>
      <rect class="cls-2" x="156.07" y="5.54" width="8.25" height="8.25" rx="4.12" ry="4.12"/>
      <path class="cls-2" d="M306.52,80.33H.79c-.43,0-.79-.35-.79-.79s.35-.79.79-.79h305.73c.43,0,.79.35.79.79s-.35.79-.79.79Z"/>
      <text class="cls-1" transform="translate(76.17 101.54)"><tspan x="0" y="0">beloved be hair</tspan></text>
      <circle class="cls-2" cx="63.87" cy="98.39" r="2.09"/>
      <circle class="cls-2" cx="240.56" cy="98.39" r="2.09"/>
    </g>
  </g>
</svg>