<?xml version="1.0" encoding="UTF-8"?>
<svg id="_レイヤー_2" data-name="レイヤー 2" xmlns="http://www.w3.org/2000/svg" viewBox="0 0 82.91 26.38">
  <defs>
    <style>
      .cls-1 {
        fill: #231815;
        stroke-width: 0px;
      }
    </style>
  </defs>
  <g id="_レイヤー_2-2" data-name="レイヤー 2">
    <g>
      <path class="cls-1" d="M79.07,11.72v.38h1.21c1.13,0,1.22.18.83,1.53-.18.63-.92,2.97-1.71,5.33-.52-1.37-2.11-5.5-2.3-5.97-.34-.86-.34-.89.18-.89h.42v-.38h-5.18v.38h.53c.92,0,.93.03,1.57,1.69.5,1.3,3,7.42,3.58,8.94-1.04,2.84-1.56,3.26-2.27,3.26-.5,0-.78-.41-.57-.64.2-.22.44-.52.36-.92-.09-.44-.53-.8-1.03-.67-.55.14-.77.68-.63,1.29.15.64.81,1.33,1.86,1.33s1.67-.66,2.61-3.27c.74-2.06,2.85-8.58,3.11-9.31.53-1.53.44-1.7,1.27-1.7v-.38h-3.84Z"/>
      <path class="cls-1" d="M44.88,22.19c-.94.3-1.96-.09-2.06-1.44-.09-1.09-.13-2.09.85-2.53.84-.37,1.79-.24,2.34-.05v2.73c0,.13,0,.35.03.56-.26.3-.73.58-1.15.71M49.79,21.57c-.6.63-.96.75-1.29.39-.19-.2-.2-.51-.2-1.83v-6.26c0-2.16-2.88-2.68-4.35-2.52-1.47.16-2.68.8-3.01,2.04-.16.63.06,1.39.73,1.44.64.04,1.35-.54.88-1.23-.33-.48-.35-.81-.11-1.15.29-.4,1.11-.79,2.1-.68,1.14.13,1.47.88,1.47,1.94v4.09c-.94-.3-2.92-.43-4.36.3-1.49.75-1.58,2.4-1.14,3.44.55,1.32,2.04,1.68,3.63,1.29.97-.24,1.67-.71,2.01-1.02.17.48.5.92,1.15,1.05.96.18,1.79-.17,2.63-1.05l.05-.06-.19-.19Z"/>
      <path class="cls-1" d="M71.02,21.08c-.55.73-1.24,1.16-1.72,1.19-.57.03-.95-.23-.95-1.3v-8.88h1.64v-.37h-1.64s0-2.27,0-2.71c0-.3-.5-.37-.61-.02-.35,1.17-1.32,2.73-3.09,2.73h-.31v.37h1.5v7.89c0,2.03.85,2.83,2.46,2.83,1.49,0,2.27-.59,3-1.52l-.26-.21Z"/>
      <path class="cls-1" d="M61.48,22.46c-.49,0-.45-.19-.45-2.14v-7.42c0-.85-.21-1.18-1.01-1.18h-2.91v.38c1.47,0,1.45-.07,1.45,1.14v6.11c0,.39-.03.81-.13,1.16l-.02.07c-.41,1.19-1.3,1.78-2.01,1.78-.86,0-1.2-.35-1.2-1.66v-7.9c0-.78-.19-1.08-1.15-1.08h-2.79v.38c1.57,0,1.45-.02,1.45,1.2v6.13c0,2.4,1.29,3.39,3.32,3.39,1.22,0,2.03-.65,2.54-1.7v.34c0,1.1.18,1.36,1.15,1.36h2.59v-.36h-.83Z"/>
      <path class="cls-1" d="M31.88,14.01c0-1.37.44-2.22,1.63-2.22,1.3,0,1.62,1.02,1.62,2.22v.46c0,.79-.03.8-.92.8h-1.7c-.52,0-.63-.04-.63-.79v-.46ZM37.04,20.83c-.95,1.13-2.05,1.55-3.25,1.55-1.13,0-1.91-.51-1.91-2.59v-3.46c0-.6.13-.63.79-.63h3.59c1.1,0,1.33-.08,1.33-1.06,0-2.34-2.16-3.29-4.09-3.29-2.61,0-4.43,1.51-4.43,4.65v2.04c0,3.21,1.63,4.86,4.64,4.86,1.51,0,2.83-.73,3.59-1.86l-.26-.22Z"/>
      <g>
        <path class="cls-1" d="M17.86,0h-9.43C3.78,0,0,3.78,0,8.44v9.43c0,4.66,3.78,8.44,8.44,8.44h9.43c4.66,0,8.44-3.78,8.44-8.44v-9.43c0-4.66-3.78-8.44-8.44-8.44ZM19.83,18.72c-.7,3.31-3.54,4.66-7.05,4.4-1.23-.09-2.4-.57-3.21-1.24-.26.13-.57.3-1.14.33-1.78.12-2.87-1.1-2.42-2.12.38-.86,1.32-.9,1.91-.71.46.15.89.48,1.31.82.51-.81.29-1.93.1-3.43-.47-3.75-.23-6.55.66-9.19.3.48.75,1.26.75,1.26,0,0,.58-.36,1.38-.77-1.22,3.06-1.26,5.69-1.07,7.74.19,2.03.47,4.24-.7,5.39.9.91,1.9,1.39,2.75,1.48,2.51.24,3.75-1.15,4.08-4.27.06-.55.1-1.16.07-1.94-.09-1.97-.8-3.25-1.33-3.69-.45.16-.9.24-1.42.24-.91,0-1.71-.17-1.66-.92.04-.56.73-.98,2-.6.19.06.38.12.55.19h0l.37.17c.31-.24.91-.86,1.06-2.48.01-.18.03-.69.03-.69,0-3.34-1.53-4.81-3.85-4.81-1.12,0-2.48.67-3.26,1.37-.69.62-1.3,1.4-1.88,2.33-.11-.68-.2-1.55-.2-1.55,0,0-.69-.13-1.25-.28.71-.62,1.22-1,2.06-1.43,1.5-.8,3.44-1.14,4.6-1.12,4.42.08,6,3.07,5.98,5.29,0,.27,0,.46-.05.75-.19,1.55-1.12,2.61-2.26,3.15,1.96.94,3.01,2.42,3.19,4.2.06.6.03,1.43-.12,2.14Z"/>
        <path class="cls-1" d="M6.34,20.42c-.14.38.34.96,1.15.98.36,0,.66-.11.98-.34-.3-.28-.49-.46-.87-.66-.72-.4-1.14-.29-1.26.03Z"/>
      </g>
      <polygon class="cls-1" points="38.62 6.51 38.6 6.57 38.52 6.62 38.38 6.65 38.15 6.66 37.92 6.65 37.78 6.62 37.7 6.57 37.68 6.51 37.68 4.64 35.95 4.64 35.95 6.51 35.93 6.57 35.86 6.62 35.71 6.65 35.48 6.66 35.26 6.65 35.11 6.62 35.03 6.57 35.01 6.51 35.01 2.14 35.03 2.08 35.11 2.03 35.26 2 35.48 1.99 35.71 2 35.86 2.03 35.93 2.08 35.95 2.14 35.95 3.84 37.68 3.84 37.68 2.14 37.7 2.08 37.78 2.03 37.92 2 38.15 1.99 38.38 2 38.52 2.03 38.6 2.08 38.62 2.14 38.62 6.51"/>
      <path class="cls-1" d="M43.93,4.27c0,.38-.05.72-.14,1.03-.09.3-.23.56-.42.77-.18.21-.42.37-.7.48-.28.11-.6.16-.96.16s-.67-.05-.94-.14c-.26-.1-.49-.24-.67-.43-.18-.19-.31-.44-.4-.74-.09-.3-.14-.65-.14-1.06,0-.37.05-.71.14-1.01.1-.3.24-.55.43-.76.19-.21.43-.37.7-.48.28-.11.6-.17.96-.17s.66.04.93.14c.27.1.49.24.67.43.18.2.31.44.4.73.09.3.14.64.14,1.05M42.95,4.32c0-.24-.02-.46-.05-.66-.04-.2-.11-.36-.19-.51-.1-.14-.21-.25-.37-.33-.15-.08-.34-.11-.57-.11s-.42.04-.58.13c-.15.08-.28.2-.38.35-.09.14-.16.32-.2.51-.04.19-.06.4-.06.62,0,.25.02.48.06.68.03.2.1.37.19.51.09.14.21.26.36.33.15.08.34.11.58.11s.42-.04.58-.13c.15-.09.28-.2.37-.35.1-.15.16-.32.21-.52.04-.19.05-.41.05-.63"/>
      <polygon class="cls-1" points="47.91 2.4 47.9 2.57 47.87 2.69 47.83 2.76 47.77 2.78 46.61 2.78 46.61 6.51 46.59 6.57 46.51 6.62 46.37 6.65 46.14 6.66 45.92 6.65 45.77 6.62 45.69 6.57 45.67 6.51 45.67 2.78 44.51 2.78 44.45 2.76 44.41 2.69 44.38 2.57 44.37 2.4 44.38 2.21 44.41 2.1 44.45 2.03 44.51 2.01 47.77 2.01 47.83 2.03 47.87 2.1 47.9 2.21 47.91 2.4"/>
      <path class="cls-1" d="M52.98,3.42c0,.26-.04.49-.12.68-.08.21-.2.37-.35.51-.16.13-.35.24-.57.31-.23.07-.49.11-.8.11h-.39v1.47l-.02.07-.08.05-.15.03h-.22s-.23,0-.23,0l-.14-.03-.08-.05-.02-.07V2.34l.08-.25.24-.09h1.4c.1.02.22.04.36.07.14.02.28.08.42.14.14.08.27.17.37.28.1.11.18.25.23.4.05.15.08.32.08.51M52,3.48c0-.17-.03-.29-.08-.4l-.21-.23-.26-.1-.29-.02h-.4v1.57h.42c.15,0,.28-.02.38-.07l.25-.17.15-.26.05-.33Z"/>
      <polygon class="cls-1" points="56.53 6.27 56.52 6.44 56.49 6.55 56.45 6.62 56.39 6.64 54.07 6.64 53.87 6.57 53.79 6.34 53.79 2.31 53.87 2.08 54.07 2.01 56.38 2.01 56.43 2.03 56.47 2.09 56.5 2.21 56.51 2.39 56.5 2.56 56.47 2.67 56.43 2.73 56.38 2.75 54.73 2.75 54.73 3.88 56.12 3.88 56.18 3.9 56.23 3.96 56.25 4.07 56.26 4.24 56.25 4.41 56.23 4.52 56.18 4.58 56.12 4.6 54.73 4.6 54.73 5.9 56.39 5.9 56.45 5.92 56.49 5.98 56.52 6.1 56.53 6.27"/>
      <path class="cls-1" d="M60.82,3.42c0,.26-.04.49-.13.68-.08.21-.2.37-.35.51-.16.13-.35.24-.57.31-.22.07-.49.11-.8.11h-.39v1.47l-.02.07-.08.05-.14.03h-.23s-.22,0-.22,0l-.15-.03-.08-.05-.02-.07V2.34l.09-.25.23-.09h1.4c.1.02.21.04.36.07.14.02.28.08.41.14.15.08.27.17.37.28.1.11.18.25.23.4.05.15.08.32.08.51M59.83,3.48c0-.17-.02-.29-.08-.4l-.21-.23-.26-.1-.29-.02h-.4v1.57h.42c.15,0,.28-.02.38-.07l.25-.17.15-.26.05-.33Z"/>
      <path class="cls-1" d="M64.71,3.42c0,.26-.04.49-.12.68-.08.21-.2.37-.35.51-.16.13-.34.24-.57.31-.23.07-.49.11-.8.11h-.39v1.47l-.02.07-.08.05-.14.03h-.23s-.23,0-.23,0l-.14-.03-.07-.05-.02-.07V2.34l.09-.25.23-.09h1.4c.1.02.22.04.35.07.14.02.28.08.42.14.14.08.26.17.36.28.1.11.17.25.23.4.05.15.08.32.08.51M63.73,3.48c0-.17-.03-.29-.09-.4l-.21-.23-.26-.1-.28-.02h-.4v1.57h.42c.15,0,.27-.02.38-.07l.25-.17.14-.26.05-.33Z"/>
      <polygon class="cls-1" points="68.21 6.27 68.21 6.44 68.18 6.55 68.13 6.62 68.07 6.64 65.75 6.64 65.55 6.57 65.47 6.34 65.47 2.31 65.55 2.08 65.75 2.01 68.06 2.01 68.12 2.03 68.16 2.09 68.19 2.21 68.2 2.39 68.19 2.56 68.16 2.67 68.12 2.73 68.06 2.75 66.41 2.75 66.41 3.88 67.81 3.88 67.86 3.9 67.91 3.96 67.94 4.07 67.95 4.24 67.94 4.41 67.91 4.52 67.86 4.58 67.81 4.6 66.41 4.6 66.41 5.9 68.07 5.9 68.13 5.92 68.18 5.98 68.21 6.1 68.21 6.27"/>
      <path class="cls-1" d="M72.66,6.51l-.02.07-.07.04-.16.03h-.28s-.24,0-.24,0l-.14-.03-.08-.05-.03-.07-.41-1.04-.15-.31-.16-.23-.21-.14-.26-.04h-.29v1.76l-.03.07-.07.05-.14.03h-.23s-.23,0-.23,0l-.14-.03-.08-.05-.02-.07V2.31l.08-.23.2-.07h1.5s.21.03.21.03c.19.03.36.07.5.13.15.06.28.15.38.25.11.1.19.23.24.37.06.14.08.31.08.48,0,.16-.02.3-.06.43l-.17.34-.28.26c-.11.07-.24.13-.38.18l.19.12.17.17.15.23.14.29.39.91.08.2.02.1ZM71.44,3.37c0-.15-.03-.28-.1-.38-.07-.11-.19-.18-.34-.23l-.16-.03h-.26s-.42,0-.42,0v1.31h.48l.35-.05.25-.14.15-.21.05-.27Z"/>
    </g>
  </g>
</svg>