<?xml version="1.0" encoding="UTF-8"?>
<svg id="_レイヤー_2" data-name="レイヤー 2" xmlns="http://www.w3.org/2000/svg" viewBox="0 0 310.19 291.97">
  <defs>
    <style>
      .cls-1 {
        fill: #fff;
        stroke-width: 0px;
      }
    </style>
  </defs>
  <g id="_レイヤー_1-2" data-name="レイヤー 1">
    <path class="cls-1" d="M13.73,261.56c-.12,0-.21-.1-.21-.21v-9.21c0-.12.1-.21.21-.21s.21.1.21.21v9.21c0,.12-.1.21-.21.21Z"/>
    <path class="cls-1" d="M22.82,261.47h-5.94c-.08,0-.15-.04-.19-.11s-.03-.15,0-.22l5.55-8.54h-5.2c-.12,0-.21-.1-.21-.21s.1-.21.21-.21h5.59c.08,0,.15.04.19.11s.03.15,0,.22l-5.55,8.54h5.55c.12,0,.21.1.21.21s-.1.21-.21.21Z"/>
    <path class="cls-1" d="M29.58,261.37h-1.21c-2.97,0-3.04-2.54-3.04-2.57v-6.61c0-.12.1-.21.21-.21s.21.1.21.21v6.61c0,.08.07,2.15,2.61,2.15h1.19s1.18.01,1.9-.7c.39-.39.59-.92.59-1.59v-6.52c0-.12.1-.21.21-.21s.21.1.21.21v6.52c0,.79-.24,1.43-.72,1.9-.8.79-1.99.82-2.18.82Z"/>
    <path class="cls-1" d="M73.34,279.36h-1.21c-2.97,0-3.04-2.54-3.04-2.57v-6.61c0-.12.1-.21.21-.21s.21.1.21.21v6.61c0,.08.07,2.15,2.61,2.15h1.19s1.18.01,1.9-.7c.39-.39.59-.92.59-1.59v-6.52c0-.12.1-.21.21-.21s.21.1.21.21v6.52c0,.79-.24,1.43-.72,1.9-.8.79-1.99.82-2.18.82Z"/>
    <path class="cls-1" d="M43.01,255.6h-4.19c-.12,0-.21-.1-.21-.21s.1-.21.21-.21h4.19c.12,0,.21.1.21.21s-.1.21-.21.21Z"/>
    <path class="cls-1" d="M41.98,261.45c-1.24,0-1.59-.97-1.6-1.49v-6.56c0-.12.1-.21.21-.21s.21.1.21.21v6.55c0,.1.06,1.07,1.16,1.07.02,0,1.01-.12,1.01-1.33v-1.11c0-.12.1-.21.21-.21s.21.1.21.21v1.11c0,1.28-.93,1.71-1.42,1.75h0Z"/>
    <path class="cls-1" d="M47.57,261.28h-.19c-1.37,0-2.49-1.12-2.49-2.49v-1.3c0-1.37,1.12-2.49,2.49-2.49h.19c1.37,0,2.49,1.12,2.49,2.49v1.3c0,1.37-1.12,2.49-2.49,2.49ZM47.38,255.42c-1.14,0-2.07.93-2.07,2.07v1.3c0,1.14.93,2.07,2.07,2.07h.19c1.14,0,2.07-.93,2.07-2.07v-1.3c0-1.14-.93-2.07-2.07-2.07h-.19Z"/>
    <path class="cls-1" d="M58.95,261.45c-.66,0-2.12-.18-3.46-1.57-.08-.08-.08-.22,0-.3.09-.08.22-.08.3,0,1.62,1.68,3.43,1.42,3.45,1.42.75-.1,1.28-.34,1.56-.74.31-.44.22-.92.22-.93-.05-1.11-1.51-2-3.06-2.95l-.48-.29c-1.83-1.13-1.82-2.29-1.82-2.34.08-1.39,1.54-1.68,2.32-1.66,2.26,0,3.32,1.48,3.37,1.55.07.1.04.23-.05.3s-.23.04-.3-.05c-.04-.06-.99-1.37-3.03-1.37-.09,0-1.81-.06-1.88,1.26,0,0,.01.97,1.62,1.96l.48.29c1.65,1,3.2,1.95,3.26,3.26h0s.13.63-.29,1.22c-.35.5-.97.81-1.85.92-.02,0-.15.02-.36.02Z"/>
    <path class="cls-1" d="M34.26,279.44c-.66,0-2.12-.18-3.46-1.57-.08-.08-.08-.22,0-.3.09-.08.22-.08.3,0,1.62,1.68,3.44,1.42,3.45,1.42.75-.1,1.28-.35,1.56-.74.31-.44.22-.92.22-.93-.05-1.11-1.51-2-3.06-2.95l-.48-.29c-1.83-1.13-1.82-2.29-1.82-2.34.08-1.39,1.56-1.69,2.32-1.66,2.26,0,3.32,1.48,3.37,1.55.07.1.04.23-.05.3-.1.07-.23.05-.3-.05-.04-.06-.99-1.37-3.03-1.37-.09,0-1.81-.06-1.88,1.26,0,0,.01.97,1.62,1.96l.48.29c1.65,1,3.2,1.95,3.26,3.26h0s.13.63-.29,1.22c-.35.5-.97.81-1.85.92-.02,0-.15.02-.36.02Z"/>
    <path class="cls-1" d="M64,279.44c-.66,0-2.12-.18-3.46-1.57-.08-.08-.08-.22,0-.3.09-.08.22-.08.3,0,1.62,1.67,3.44,1.43,3.46,1.42.75-.1,1.28-.35,1.56-.74.31-.44.22-.92.22-.93-.05-1.11-1.52-2-3.06-2.95l-.48-.29c-1.83-1.13-1.82-2.29-1.82-2.34.08-1.39,1.56-1.69,2.32-1.66,2.26,0,3.32,1.48,3.37,1.55.07.1.04.23-.05.3-.1.07-.23.05-.3-.05-.04-.06-.99-1.37-3.03-1.37-.09,0-1.81-.06-1.88,1.26,0,0,.01.97,1.62,1.96l.48.29c1.65,1,3.2,1.95,3.26,3.26h0s.13.63-.29,1.22c-.35.5-.97.81-1.85.92-.02,0-.15.02-.36.02Z"/>
    <path class="cls-1" d="M66.8,261.51c-2.27,0-4.11-2.12-4.11-4.72,0-1.52.48-2.84,1.36-3.69.72-.7,1.67-1.06,2.76-1.03,2.28.05,4.08,2.13,4.11,4.72h0c.02,1.4-.46,2.67-1.34,3.55-.75.76-1.73,1.17-2.78,1.17ZM66.69,252.49c-.94,0-1.72.31-2.34.91-.8.78-1.23,1.98-1.23,3.39,0,2.37,1.66,4.3,3.69,4.3.93,0,1.81-.37,2.48-1.05.8-.81,1.23-1.96,1.21-3.25h0c-.03-2.36-1.65-4.25-3.69-4.3-.04,0-.07,0-.11,0Z"/>
    <path class="cls-1" d="M24.93,279.45c-2.27,0-4.11-2.12-4.11-4.72,0-1.52.48-2.84,1.36-3.69.72-.7,1.68-1.05,2.76-1.03,2.28.05,4.08,2.13,4.11,4.72h0c.02,1.4-.46,2.67-1.34,3.55-.75.76-1.73,1.17-2.78,1.17ZM24.82,270.42c-.93,0-1.74.31-2.35.91-.8.78-1.23,1.98-1.23,3.39,0,2.37,1.66,4.3,3.69,4.3.93,0,1.81-.37,2.48-1.05.8-.81,1.23-1.96,1.21-3.25-.03-2.36-1.65-4.25-3.69-4.3-.03,0-.07,0-.1,0Z"/>
    <path class="cls-1" d="M73.35,261.57c-.12,0-.21-.1-.21-.21v-8.97c0-.12.1-.21.21-.21h2.13s1.37-.05,2.21.75c.43.42.65.98.65,1.68,0,.01.05.75-.54,1.4-.51.56-1.34.87-2.44.93l2.98,4.28c.07.1.04.23-.05.3-.09.07-.23.04-.3-.05l-3.2-4.6c-.05-.07-.05-.15-.01-.22s.11-.11.19-.11c1.18,0,2.03-.27,2.53-.8.47-.51.44-1.08.44-1.1,0-.59-.18-1.05-.52-1.38-.71-.68-1.89-.64-1.9-.63h-1.92v8.75c0,.12-.1.21-.21.21Z"/>
    <path class="cls-1" d="M80.19,261.51s-.05,0-.07-.01c-.11-.04-.17-.16-.12-.27l3.38-9c.03-.08.11-.14.2-.14h0c.09,0,.17.05.2.14l3.49,9c.04.11-.01.23-.12.27-.11.04-.23-.01-.28-.12l-3.29-8.48-3.18,8.48c-.03.09-.11.14-.2.14Z"/>
    <path class="cls-1" d="M85.72,258.37h-4.22c-.12,0-.21-.1-.21-.21s.1-.21.21-.21h4.22c.12,0,.21.1.21.21s-.1.21-.21.21Z"/>
    <path class="cls-1" d="M93.17,261.6c-.12,0-.21-.1-.21-.21v-6.4c0-.12.1-.21.21-.21s.21.1.21.21v6.4c0,.12-.1.21-.21.21Z"/>
    <path class="cls-1" d="M96.7,261.51c-.12,0-.21-.1-.21-.21v-4.83c0-.09-.04-.89-1.01-.89-.06.02-1.21.01-2.09,1.58-.06.1-.19.14-.29.08-.1-.06-.14-.19-.08-.29,1.02-1.81,2.39-1.8,2.46-1.8,1.13,0,1.43.86,1.43,1.32v4.83c0,.12-.1.21-.21.21Z"/>
    <path class="cls-1" d="M101.19,261.54c-1.47,0-2.67-1.53-2.67-3.4s1.02-3.2,2.65-3.23c.01,0,.03,0,.04,0,1.45,0,2.56,1.34,2.65,3.22h0c.05,1.04-.27,1.97-.89,2.62-.49.51-1.12.79-1.78.79ZM101.22,255.34s-.02,0-.03,0c-1.4.03-2.24,1.07-2.24,2.8s1.01,2.98,2.25,2.98c.54,0,1.07-.24,1.48-.66.54-.57.82-1.38.77-2.3h0c-.08-1.64-1.01-2.81-2.22-2.81Z"/>
    <path class="cls-1" d="M1.55,279.41c-.62,0-.65-.03-.7-.08-.04-.04-.06-.09-.06-.15v-8.91c0-.12.1-.21.21-.21h2.21c.97.02,2.8.56,2.8,2.43,0,.03-.1,1.53-1.5,2.1.87.26,1.99.9,1.99,2.41,0,.03,0,.78-.65,1.44-.63.64-1.63.96-2.97.96-.63.01-1.05.02-1.34.02ZM1,279.18h0,0ZM1.21,278.98c.32,0,1.03,0,1.68-.02,1.23,0,2.13-.28,2.68-.83.53-.53.52-1.13.52-1.13,0-2.04-2.46-2.17-2.56-2.18l-.64-.03c-.12,0-.21-.1-.2-.22,0-.12.1-.21.21-.21h.44c2.13,0,2.26-1.82,2.26-1.9,0-1.91-2.29-1.99-2.38-1.99h-2v8.5Z"/>
    <path class="cls-1" d="M9.59,279.48c-.12,0-.21-.1-.21-.21v-9.23c0-.12.1-.21.21-.21s.21.1.21.21v9.23c0,.12-.1.21-.21.21Z"/>
    <path class="cls-1" d="M15.93,275.81h0c-.08,0-.15-.04-.18-.11l-3.17-5.5c-.06-.1-.02-.23.08-.29.1-.06.23-.02.29.08l2.99,5.19,3.08-5.22c.06-.1.19-.13.29-.08.1.06.13.19.08.29l-3.26,5.53c-.04.06-.11.1-.18.1Z"/>
    <path class="cls-1" d="M15.93,279.62c-.12,0-.21-.1-.21-.21v-3.81c0-.12.1-.21.21-.21s.21.1.21.21v3.81c0,.12-.1.21-.21.21Z"/>
    <path class="cls-1" d="M39.33,279.55c-.12,0-.21-.1-.21-.21v-9.17c0-.12.1-.21.21-.21s.21.1.21.21v9.17c0,.12-.1.21-.21.21Z"/>
    <path class="cls-1" d="M45.13,279.55c-.12,0-.21-.1-.21-.21v-9.17c0-.12.1-.21.21-.21s.21.1.21.21v9.17c0,.12-.1.21-.21.21Z"/>
    <path class="cls-1" d="M49.28,279.55c-.12,0-.21-.1-.21-.21v-9.17c0-.12.1-.21.21-.21s.21.1.21.21v9.17c0,.12-.1.21-.21.21Z"/>
    <path class="cls-1" d="M55.7,279.55c-.12,0-.21-.1-.21-.21v-9.17c0-.12.1-.21.21-.21s.21.1.21.21v9.17c0,.12-.1.21-.21.21Z"/>
    <path class="cls-1" d="M59.41,270.47h-7.51c-.12,0-.21-.1-.21-.21s.1-.21.21-.21h7.51c.12,0,.21.1.21.21s-.1.21-.21.21Z"/>
    <path class="cls-1" d="M45.13,274.88h-5.81c-.12,0-.21-.1-.21-.21s.1-.21.21-.21h5.81c.12,0,.21.1.21.21s-.1.21-.21.21Z"/>
    <path class="cls-1" d="M4.17,55.48c-.11,0-.23,0-.34-.02-.31.01-1.27-.02-2.17-.9-1.36-1.32-1.89-3.86-1.57-7.55v-.03c.01-.09.29-2.18,1.78-4.23,1.21-1.68,3.46-3.6,7.45-3.87.6-7.45.58-17.63.56-20.63-2.91.82-8,3.64-8.05,3.67l-.68-1.22c.26-.15,6.43-3.56,9.32-4.01l.8-.12v.81c.01.13.15,12.63-.54,21.49.09,0,.18,0,.27,0,.63,0,9.98.02,21.42,5.42l-.6,1.26c-11.31-5.34-20.74-5.29-20.83-5.29h-.02s-.02,0-.02,0c-.12,0-.23,0-.35-.01-.01.11-.02.21-.03.32-.03.69-.47,10.91-4.03,13.98-.71.62-1.51.93-2.37.93ZM3.85,54.06h.07c.62.08,1.18-.11,1.71-.56,2.61-2.25,3.44-10.14,3.54-12.99v-.04c0-.05.01-.11.02-.16-6.73.59-7.65,6.45-7.71,6.86-.34,3.99.42,5.67,1.12,6.38.57.58,1.15.54,1.17.54h.08Z"/>
    <path class="cls-1" d="M19.76,59.39l-1.09-.87c2.88-3.61,4.93-10.3,5.93-19.35.76-6.89.64-12.75.64-12.81l1.4-.03c0,.06.12,6.01-.65,12.99-1.04,9.45-3.14,16.2-6.23,20.07Z"/>
    <rect class="cls-1" x="52.92" y="19.47" width="30.07" height="1.4" transform="translate(-2.93 20.18) rotate(-16.54)"/>
    <path class="cls-1" d="M67.2,65.32l-1.11-.85c5.53-7.26,4.72-18.45,4.71-18.56v-.04s0-.04,0-.04c.01-.36.02-.72.02-1.08-.32.79-1.63,3.58-4.08,3.72-.18.01-1.26.05-2.29-.85-1.06-.92-1.65-2.47-1.77-4.59-.06-.51-.65-6.18,2.96-8.99.19-.16,1.58-1.28,3.08-.87.24.07.47.17.69.3-.24-1.89-.31-4.01-.31-4.11v-.02s0-25.42,0-25.42h1.4v25.41c0,.19.1,2.86.42,4.74.1.33.6,2.07.73,4.39.32,1.83.65,4.5.56,7.38.07.88.75,11.94-4.99,19.48ZM68.03,34.48c-.75,0-1.49.62-1.5.63l-.04.03c-3.1,2.39-2.45,7.69-2.44,7.74v.05c.09,1.7.53,2.94,1.27,3.61.63.57,1.28.54,1.31.53,1.85-.1,2.92-2.96,2.93-2.99.64-1.88.76-3.83.67-5.48-.22-1.26-.43-2.08-.46-2.21-.25-.75-.7-1.68-1.42-1.88-.1-.03-.21-.04-.32-.04Z"/>
    <rect class="cls-1" x="78.2" y="2.52" width="1.4" height="6.19" transform="translate(-.2 5.21) rotate(-3.78)"/>
    <rect class="cls-1" x="83.01" y=".02" width="1.4" height="6.23" transform="translate(-.06 3.13) rotate(-2.14)"/>
    <path class="cls-1" d="M121.41,33.61c-2.39-7.21-3.45-18.74-3.5-19.23l1.39-.13c.01.12,1.1,11.85,3.43,18.91l-1.33.44Z"/>
    <path class="cls-1" d="M125.97,58.71c-1.29,0-2.12-.27-2.25-.31-2.63-.85-4.42-3.33-5.18-7.2-.53-2.69-.38-5.14-.36-5.43.02-3.99,1.16-10.3,6.47-17.8,3.16-4.47,6.28-7.21,6.41-7.33l.92,1.05c-.12.11-12.34,10.96-12.4,24.11v.05c0,.09-.65,9.55,4.58,11.22h.02c.16.06,3.97,1.31,8.58-2.49l.89,1.08c-3.04,2.51-5.83,3.06-7.67,3.06Z"/>
    <path class="cls-1" d="M171.74,37.78l-.46-1.32c3.11-1.07,6.14-5.26,8.78-12.12,1.39-3.62,2.33-7.12,2.79-8.98-4.01,1.72-10.12,3.32-10.41,3.4l-.35-1.35c.08-.02,7.77-2.04,11.45-3.91l1.3-.66-.3,1.43c-.18.84-4.43,20.63-12.8,23.52Z"/>
    <rect class="cls-1" x="167.37" y="33.54" width="25.71" height="1.4" transform="translate(-1.61 58.5) rotate(-18.36)"/>
    <path class="cls-1" d="M183.81,61.95c-.26-.15-6.48-3.69-6.07-13.01-.01-.34-.06-2.68,1.07-5.91,1.09-3.14,3.55-7.77,9.04-11.99l.85,1.11c-9.96,7.66-9.57,16.67-9.57,16.76v.04s0,.04,0,.04c-.38,8.49,5.29,11.73,5.35,11.76l-.68,1.22Z"/>
    <path class="cls-1" d="M243.43,11.73c-3.21-3.65-6.84-5.03-6.88-5.05l.48-1.31c.16.06,3.99,1.5,7.45,5.43l-1.05.92Z"/>
    <path class="cls-1" d="M228.01,44.12l-1.19-.73c.82-1.34.95-2.22.96-2.23l.02-.11c1.15-3.79.96-8.11.96-8.15v-.03s0-18.46,0-18.46h1.4v18.44c.02.35.17,4.64-1,8.56-.05.28-.26,1.29-1.14,2.71Z"/>
    <path class="cls-1" d="M228.96,59.73c-.31,0-.62,0-.94-.02l.07-1.4c9.45.44,14.07-6.6,14.11-6.67,4.67-7.13.88-12.47.62-12.82-2.68-3.23-7.09-1.87-7.27-1.81-5.61,1.85-8.51,8.84-8.53,8.91l-1.3-.52c.13-.31,3.16-7.66,9.4-9.72.23-.07,5.5-1.73,8.79,2.26l.02.02c.05.07,1.22,1.63,1.74,4.2.47,2.35.45,6.04-2.29,10.24-.19.3-4.81,7.32-14.41,7.33Z"/>
    <path class="cls-1" d="M294.02,62.45l-.92-1.05c2.84-2.51,5.76-7.9,5.79-7.96,5.84-11.35,2.54-22.88,2.51-23-1.71-5.5-4.91-6.68-6.75-6.88-.12,2.06-.72,9.18-3.63,16.99-.15.41-3.73,10.14-6.93,15.27l-.47.74-.62-.62c-.2-.2-4.83-5.02-2.17-19.02.03-.15.74-3.57,2.56-7.09,2.46-4.77,5.79-7.4,9.63-7.62.33-.06,1.93-.27,3.82.48,3.41,1.35,5.09,4.74,5.9,7.34.04.13.9,3.09,1.02,7.54.11,4.11-.43,10.3-3.63,16.51-.13.24-3.07,5.68-6.1,8.36ZM293.24,23.59s0,0,0,0h-.1c-8.16.44-10.91,13.47-10.94,13.6-1.93,10.17.17,15.21,1.24,16.99,2.99-5.2,6.24-14.02,6.27-14.11,2.77-7.44,3.4-14.38,3.53-16.49Z"/>
    <path class="cls-1" d="M288.3,86.72c-4.28-.65-6.34-3.85-6.43-3.99l1.18-.75s1.82,2.8,5.45,3.35l-.21,1.38Z"/>
    <path class="cls-1" d="M295.93,84.62l-.72-1.2.36.6-.36-.6s4.42-2.71,5.55-6.34l1.33.42c-1.29,4.14-5.96,7-6.16,7.12Z"/>
    <path class="cls-1" d="M279.58,94.15l-.16-1.39c.15-.02,14.85-1.71,24.83-6.66l.62,1.25c-10.21,5.06-25.15,6.78-25.3,6.79Z"/>
    <path class="cls-1" d="M281.84,103.23l-.13-1.39c.08,0,8.28-.84,20.35-5.37l.49,1.31c-12.26,4.61-20.62,5.45-20.71,5.46Z"/>
    <path class="cls-1" d="M275.61,113.54l-.08-1.4c.16,0,16.31-.96,32.58-8.67l.6,1.26c-16.53,7.83-32.94,8.79-33.1,8.8Z"/>
    <rect class="cls-1" x="291.38" y="91.27" width="1.4" height="18.87"/>
    <path class="cls-1" d="M277.32,126.55l-.19-1.38c.17-.02,16.73-2.33,29.33-7.98l.57,1.27c-12.78,5.74-29.55,8.07-29.71,8.09Z"/>
    <path class="cls-1" d="M274.98,142.32c-.32,0-.65-.02-.97-.05l.14-1.39c5.67.57,10.54-4.86,10.59-4.92l.06-.06c4.08-3.64,5.63-9.5,6.21-13.78.64-4.7.29-8.57.28-8.6l1.39-.13c.02.16.37,4.04-.29,8.89-.88,6.46-3.17,11.52-6.64,14.64-.21.23-1.47,1.59-3.4,2.89-2.46,1.65-4.99,2.51-7.38,2.51Z"/>
    <path class="cls-1" d="M303.22,134.61c-2.59,0-4.91-.9-6.81-2.64-.19-.17-4.76-4.39-5.12-12.8l1.4-.06c.33,7.83,4.62,11.79,4.66,11.83,2.14,1.97,4.8,2.67,7.92,2.08,2.39-.45,4.16-1.53,4.18-1.54l.73,1.19c-.08.05-1.97,1.21-4.6,1.72-.81.16-1.59.23-2.35.23Z"/>
    <rect class="cls-1" x="292.08" y="153.72" width="1.4" height="10.83"/>
    <polygon class="cls-1" points="278.71 177.57 277.32 177.57 277.32 168.39 308.24 159.97 308.24 169.62 306.84 169.62 306.84 161.8 278.71 169.45 278.71 177.57"/>
    <path class="cls-1" d="M280.13,183.13l-.39-1.34c5.55-1.61,6.57-6.91,6.58-6.97l1.37.25c-.05.25-1.2,6.21-7.57,8.06Z"/>
    <path class="cls-1" d="M303.56,177.63c-4.78,0-7.01-3.24-7.55-5.17l1.58-.44c.06.2,1.46,4.82,7.61,3.83l.26,1.62c-.67.11-1.31.16-1.9.16Z"/>
    <path class="cls-1" d="M275.86,201.12l-.41-1.34c.07-.02,3.45-1.1,7.15-4.23,3.43-2.89,7.86-8.19,9.48-16.98l1.38.02c.01.07,1.13,6.62,6.04,10.11,2.8,1.99,6.31,2.62,10.44,1.89l.24,1.38c-4.52.8-8.39.08-11.5-2.14-3.29-2.34-5-5.81-5.85-8.23-2.04,7.59-6.14,12.34-9.38,15.07-3.94,3.31-7.44,4.41-7.59,4.46ZM275.66,200.45l-.21-.67s0,0,0,0l.21.67Z"/>
    <path class="cls-1" d="M288.85,214.87l-1.4-.02c0-.08.09-7.72,0-11.94-.08-3.9-.83-5.11-.84-5.12l1.15-.8c.1.14,1,1.52,1.09,5.89.09,4.24,0,11.91,0,11.99Z"/>
    <polygon class="cls-1" points="298.28 209.88 296.88 209.88 296.88 199.8 288.42 202.17 288.05 200.83 298.28 197.96 298.28 209.88"/>
    <rect class="cls-1" x="288.02" y="210.02" width="12.14" height="1.4" transform="translate(-45.47 85.86) rotate(-15.43)"/>
    <polygon class="cls-1" points="279.15 253.56 277.75 253.56 277.75 244.2 308.67 235.96 308.67 245.52 307.28 245.52 307.28 237.78 279.15 245.27 279.15 253.56"/>
    <rect class="cls-1" x="292.51" y="229.8" width="1.4" height="10.92"/>
    <path class="cls-1" d="M282.98,255.07l-.04-1.4.02.7-.02-.7c.07,0,6.95-.25,20.26-5.43l.51,1.3c-13.58,5.28-20.45,5.51-20.73,5.52Z"/>
    <path class="cls-1" d="M289.21,268.95c-1.97,0-3.23-.36-3.36-.4l-.83-.25.42-.76c3.16-5.75,4.28-14.23,4.29-14.31l1.39.18c-.04.34-1.06,8.06-4.01,13.97,1.97.3,7.08.54,12.49-3.53-.73-1.38-2.64-5.18-3.23-8.24l1.37-.26c.67,3.51,3.33,8.3,3.36,8.35l.29.52-.46.37c-4.52,3.61-8.87,4.37-11.72,4.37Z"/>
    <path class="cls-1" d="M283.01,280.51l-.2-1.38c.12-.02,11.89-1.78,20.49-5.65l.57,1.27c-8.78,3.95-20.74,5.74-20.86,5.76Z"/>
    <path class="cls-1" d="M281.66,291.97l-.65-1.24c.11-.06,11.06-5.73,24.28-6.43l.07,1.4c-12.9.68-23.6,6.21-23.7,6.27Z"/>
    <rect class="cls-1" x="292.63" y="269.92" width="1.4" height="16.77"/>
    <path class="cls-1" d="M9.85,261.6c-.12,0-.21-.1-.21-.21v-8.96l-4.01,8.87c-.03.08-.11.12-.19.12h0c-.08,0-.16-.05-.19-.13l-3.92-8.72v8.76c0,.12-.1.21-.21.21s-.21-.1-.21-.21v-9.17c0-.12.1-.21.21-.21h.26c.08,0,.16.05.19.13l3.87,8.61,3.87-8.57c.03-.08.11-.12.19-.12h.35c.12,0,.21.1.21.21v9.17c0,.12-.1.21-.21.21Z"/>
  </g>
</svg>